<svg class="norway" xmlns="http://www.w3.org/2000/svg" xmlns:xlink="http://www.w3.org/1999/xlink" version="1.1" id="Ebene_1" x="0px" y="0px" width="515.098px" height="688.92px" viewBox="0 0 515.098 688.92" enable-background="new 0 0 515.098 688.92" xml:space="preserve">
<g>
	<path fill="#ECEAE5" stroke="#000000" stroke-width="0.5" stroke-miterlimit="10" d="M37.933,646.964l0.175,1.858l-1.146-0.142   l-0.389-1.958L37.933,646.964z M33.525,616.736l-1.511-0.054l0.399-1.141L33.525,616.736z M32.339,614.114l1.561,0.504l1.541,0.053   l0.723,0.969l-0.106,1.408l-0.7,0.351l-3.473-2.833L32.339,614.114z M44.339,610.33l0.135,0.591l-2.181,1.706l-0.52-1.128   L44.339,610.33z M42.067,610.083l-0.913,0.33l-0.805-1.422l0.741-1.503l2.39-0.342l1.183,1.087l-0.216,1.293L42.067,610.083z    M25.025,611.042l-0.501,1.444l-2.589-0.284l-0.353-2.856l0.621-1.352l0.289-2.362l0.748-0.813l-0.436-2.048l0.725-0.894   l0.354-1.803l1.263,0.48l0.411,2.02l-0.556,0.781l0.994,1.268l-0.489,0.473l0.439,1.47L25.025,611.042z M29.014,610.896   l-1.312,0.175l-1.012-0.848l0.594-2.332l1.479,1.188L29.014,610.896z M38.786,612.725l-1.021,1.42l-1.072-0.003l-0.526-1.053   l1.606-1.887L38.786,612.725z M24.714,595.297l0.666,0.494l0.856,0.753l0.334,0.378l1.872-0.56l1.608-0.143l0.426-0.77l1.168-0.14   l1.466-1.791l0.069-3.99l1.077-1.702l2.135,0.694l2.613,1.507l0.752-0.056l0.168,0.807l1.356,0.425l0.117,0.697l1.631,0.817   l-0.088,0.911l2.249-0.724l1.389,0.768l1.575,0.125l0.006-1.393l1.016-1.873l0.503-1.714l1.064-0.45l0.284-1.734l1.502-1.855   l2.369-0.198l0.47-0.747l2.483-1.533l0.686,0.614l2.168-0.438l0.647,0.739l-0.387,2.305l0.226,0.624l-1.134,2.367l0.055,0.793   l1.292,0.481l1.479-0.264l1.158-0.872l4.067-2.044l2.93-0.283l0.262,0.965l-0.238,3l2.418,1.531l-2.888,0.816l-0.365,1.492   l-1.083,1.486l-1.349-0.609l-0.568,3.523l0.857,2.091l-1.755,1.612l-1.862,0.631l0.098,1.452l-1.784,3.759l-0.347,2.255   l0.299,0.943l-0.297,2.782l1.597,0.479l0.422,0.979l-1.033,0.7l0.327,1.761l-3.096,2.674l-2.215,2.25l-1.072,0.693l-1.006,2.117   l-1.92,1.273l0.089,1.163l0.983,0.375l-1.614,2.455l-1.098,2.709l1.432,0.395l-0.184,0.979l1.078,1.908l-0.607,0.759l-2.42,0.622   l-0.72-0.169l-0.355,1.491l0.6,1.525l0.934-0.783l1.219,0.714l0.021,1.209l0.586,1.731l-0.827,2.158l0.684,3.211l-1.008,1.223   l0.175,2.063L52,654.831l-3.43,1.527l-1.547,0.303l-1.233-1.716l-3.556-1.703l-2.814-1.979l-1.102-2.289l-0.083-2.479l-2.773,0.065   l-2.099-1.553l0.273-1.128l-1.147-1.063l-1.02-0.078l-1.137-1.145l-0.206-1.441l-2.017-4.392l0.264-1L27.7,633.85l-0.137-2.672   l1.328-1.436l-0.108-1.116l0.722-1.134l0.63-2.406l-0.155-2.173l0.63-0.88l-0.411-0.938l0.208-1.712l1.465-0.084l2.441,2.488   l0.759,0.342l-0.378,1.88l2.271,0.153l0.523-1.447l2.17,0.822l0.653,1.117l-0.554,1.126l3.322,0.8l0.097-1.356l0.596-0.916   l1.889-1.211l2.388-1.164l2.091-0.016l3.591-0.879l-0.172-0.539l-3.926,0.741l-1.971,0.078l-1.639,0.946l-2.817,1.987l-1.025,1.452   l-0.785-1.103l-0.62-1.795l0.67-1.039l0.956-0.378l-0.619-1.138l-1.883-0.186l-1.117-2.162l-0.095-0.957l2.52-1.562l1.316,0.445   l0.889-0.729l-1.167-0.666l2.089-2.397l0.103-0.725l3.233-2.291l1.191,0.008l1.609-1.45l-4.479,1.57l-0.799-1.522l0.574-1.076   l-2.741-1.527l0.947-1.694l2.212-0.887l0.068-0.73l1.772,0.117l1.381-2.417l0.497-1.661l3.063-0.764l1.15-1.339l-4.18,1.423   l0.771-1.636l1.056-1.294l0.106-1.854l-1.011,0.166l0.227,1.941l-0.875,0.705l-0.697,1.825l-1.211,0.935l0.192,1.255l-1.636,2.129   l-3.55,0.811l-1.699,2.355l-0.758-2.521l0.163-2.297l1.337,0.396l2.039-0.403l0.1-1.041l-3.425-0.103l-0.898-1.669l0.205-1.741   l-1.401,0.911l0.764,2.68l-2.767,1.428l0.493,0.365l1.765-0.425l0.443,2.147l0.619,0.72l-0.291,1.363l-1.81,0.845l-1.215-0.389   l-2.936,2.012l-0.211-1.627l0.95-0.084l-0.791-3.003l-0.164-4.197l0.264-1.366l-1.021-0.082l-1.692,2.452l2.211,0.102l0.092,3.062   l-0.469,0.292l-0.086,2.358l-1.869,2.592l-3.137-1.257l-0.464-1.259l0.169-1.298l-1.544,0.359l-0.514-2.53l-0.906-2.048   l-0.342-1.747L24.714,595.297z"/>
	<path fill="#1385BB" stroke="#000000" stroke-width="0.5" stroke-miterlimit="10" d="M270.856,146.578l-1.812,0.514l-0.696-0.556   l1.313-2.025l0.264,1.633L270.856,146.578z M268.202,151l-1.12-1.604l-1.714-0.966l0.528-1.712l1.42,0.198l0.992,1.038l1.562,0.317   l0.842-0.582l0.948,0.33l0.436,1.175l-0.356,1.545l-0.77,1.337l-1.717-0.203L268.202,151z M277.264,156.408l0.562-2.27l1.138-2.236   l1.151,2.302l1.928,1.952l-0.756,1.134l-2.511,0.633l-1.646,0.908l-0.926,0.119l0.259-2.222L277.264,156.408z M272.572,147.823   l1.504,0.082l-1.394,1.484L272.572,147.823z M286.467,140.767l0.811,1.009l-0.397,1.031l-0.923,0.522l-0.802,2.006l-0.622,0.47   l-0.572-2.158l0.812-2.4L286.467,140.767z M284.852,148.901l0.953,1.367l1.067,0.596l-1.031,1.475l-2.493,2.613l-1.432-0.414   l-0.072-1.202l-1.796-3.456l0.262-0.913l1.344,0.528l0.789-0.901L284.852,148.901z M283.95,116.205l1.773,1.455l0.6,1.497   l1.172,0.374l-0.747-3.163l0.658-0.319l1.267,2.462l0.94-1.498l1.227-0.186l1.428,2.445l1.961,1.423l-0.688,2.347l1.126,0.502   l-0.155,3.664l-1.773,0.766l-0.389,1.189l1.058,3.501l-0.467,1.33l1.556,1.042l-0.759,0.75l-2.156,1.058l-1.894-0.388l-1.095,0.986   l-2.163-0.766l0.146-1.114l-0.855-0.584l-2.58,4.222l-0.862,0.698l-1.479,2.633l1.104,1.2l-1.264,0.962l-1.898,0.486l0.083-1.501   l0.745-1.445l-1.506,0.086l-0.497-0.461l-1.66,1.249l-1.801-0.028l-0.137-1.878l0.496-1.32l1.762,0.739l-0.334-1.261l3.096-0.702   l-0.035-1.859l-3.042-0.719l-0.319-1.655l1.479-0.291l1.447,0.416l0.302-1.176l-2.53-0.964l-1.122-1.65l2.797-1.44l-2.446-1.994   l3.436-1.7l2.105-0.134l2.34,2.175l0.191-1.065l-1.103-0.28l-0.169-1.008l0.673-1l-2.438-0.803l-1.024-2.045l0.403-0.345   l1.896,1.372l0.253-1.647l-0.602-1.578l2.125,1.009l0.619-0.05l1.444,1.323l0.645,1.233l1.472-0.439l-1.353-1.199l-2.717-3.658   L283.95,116.205z M269.964,169.914l1.267,1.097l-1.356,0.902l0.739,0.973l-1.159,1.203l-1.092-0.141l-1.472,0.617l-2.101,1.438   l-0.963-1.357l1.064-1.398l-0.041-2.488l1.354-2.416l2.65-0.639l1.175,1.156L269.964,169.914z M293.955,111.372l1.236,1.095   l-1.229,0.795L293.955,111.372z M308.467,82.166l0.605-0.173l0.886,1.219l0.26,4.864l-1.703,1.264l-2.501-1.994l1.815-2.112   l0.968-0.131l-1.482-1.706L308.467,82.166z M315.962,88.111l-0.041,0.9l-1.128,0.395l-1.182-0.234l-1.66-0.945l0.148-1.436   l0.984-0.719l1.235,1.097L315.962,88.111z M313.629,102.692l-1.471,1.295l-2.274,0.775l-0.512-0.208l-1.27-2.075l-1.292-0.572   l-0.97-1.345l-2.249-0.845l-0.858-0.728l0.359-2.006l1.225,0.4l0.959-0.494l-1.208-1.06l0.008-1.314l0.908-0.961l1.023-0.056   l2.061-1.928l0.358-0.933l1.228-0.474l0.981,0.706l1.034-0.693l-0.208,2.417l1.622,2.03l0.579-2.644l1.081-0.65l2.078,1.209   l1.403,1.153l-0.708,1.845l-2.42,0.989l0.494,1.682l-0.701,0.895L313.629,102.692z M308.507,108.539l0.558,0.414l-0.736,2.681   l-1.062,0.271l-0.05-2.072L308.507,108.539z M308.696,104.6l0.592,0.936l-0.709,1.891l-2.116,2.562l-1.406,0.644l-0.594,2.087   l1.399-0.119l0.293,1.153l-0.667,2.223l-1.295,0.371l-1.031-0.844l-0.72,1.359l-1.816,0.521l-1.38,0.842l-2.872,0.773l-0.842-0.264   l-1.153-1.495l-1.513-0.125l0.005-2.022l1.181-0.423l0.947-1.086l2.251,0.474l-1.35-1.791l-0.799-2.315l2.832,0.81l0.688-0.592   l2.354-0.177l0.044-0.609l-3.631,0.169l-0.565-2.966l1.161-0.952l2.317,0.85l0.191-1.043l0.789-0.604l1.205,0.143l-0.432,1.805   l0.617,1.436l1.008,0.477l0.102-2.719l0.773-1.34l-2.089-1.102l-0.491-1.658l0.978-0.994l1.272-0.181l1.75,2.106l1.491,0.053   L308.696,104.6z M300.163,102.401l0.699-0.017l0.489,1.264l-2.428,0.556l-0.203-0.769L300.163,102.401z M319.256,94.177   l0.574-1.175l1.039,0.219l0.906,1.181l-1.361,2.535l-0.202,2.5l-0.395,0.967l-1.628,0.244l-3.461,1.08l0.788-2.72l0.698-1.449   l1.3-0.809l1.658-2.036L319.256,94.177z M314.205,81.917l0.637-0.44l0.261-1.322l0.762-0.219l0.661,1.159l0.339,1.778l0.828-0.388   l0.57,1.091l0.251,1.892l1.039-0.572l-0.008-1.763l1.349,0.759l-0.151,0.808l1.367,2.231l2.695,0.564l-0.45,0.925l-1.323,0.506   l-0.014,1.239l-1.681,0.68l-2.247-0.126l-0.742-0.572l-0.545-1.567l0.017-1.423l-0.57-1.25l-1.562-2.055l-1.164-0.314   L314.205,81.917z M323.621,85.114l-1.564,0.376l-0.061-1.152L323.621,85.114z M325.35,81.474l-0.37-2.062l1.751,0.331l-0.648,1.428   L325.35,81.474z M330.86,81.267l1.295-0.778l2.219-0.271l1.119,1.722l-0.458,4.575l1.184,2.161l-1.073,0.62l-1.251-0.042   l-1.244,0.928l-1.264-0.625l-0.964,0.205l-1.39-1.271l-0.08-2.837l0.189-2.055l1.636-1.083L330.86,81.267z M337.371,87.728   l-0.791,0.214l-1.238-2.102l0.911-2.209l1.785,2.555L337.371,87.728z M338.744,91.791l1.12-0.155l-0.744,2.083l-1.586,1.087   l-1.555-1.425l-0.041-0.919l-0.928-1.67l1.15-1.447l0.914,0.192L338.744,91.791z M303.805,93.545l-0.542,0.239l-0.761,2.182   l-0.924-0.984l-0.16-2.98l0.455-0.861l-0.211-1.214l1.528,0.184l0.661,1.484l1.376-1.249l1.145,0.511l-0.597,1.667L303.805,93.545z    M304.689,87.67l-1.861,0.192l0.564-1.977l1.161-0.068L304.689,87.67z M351.264,89.542l-2.5-0.845l0.91-1.536l2.016,1.286   L351.264,89.542z M349.715,76.602l-0.975-0.884l-0.146-2.992l-0.473-1.039l1.025-0.366l1.28,0.995l-0.327,3.41L349.715,76.602z    M364.135,68.095l1.904,0.291l0.081,1.074l1.804,0.995l0.99-0.194l0.176,1.244l1.199,1.705l-0.338,1.305l-1.853-0.267l-1.935,0.458   l-2.893-0.237l-0.364-0.417l-2.664-0.786l-1.116-2.203l2.657-2.075L364.135,68.095z M352.275,92.247l0.124,0.801l-1.768-0.159   l0.597-1.094L352.275,92.247z M333.243,98.203l-0.057-1.522l1.519-0.543l0.913,0.617l-0.024,1.375l1.021,1.078l-0.286,0.856   l-2.212,1.772l-0.6-0.661l-0.568-1.852L333.243,98.203z M406.344,67.288l-0.358-1.477l1.319,0.337L406.344,67.288z M378.51,56.955   l-1.143-1.681l0.234-3.153l-1.111-0.434l-0.264-1.308l0.426-1.994l2.011-0.342l1.12,1.469l2.182,0.203l1.36,0.969l1.707,3.031   l-0.124,1.062l-1.467,2.275l0.199,1.026l-1.354,1.186l-1.9,0.166l-0.867-0.641L378.51,56.955z M380.927,31.675l-0.929,0.949   l-0.111,0.872l-1.401,0.186l0.845-1.491L380.927,31.675z M380.233,34.442l-0.336,0.675l1.442,1.565l1.439-0.115l0.472,0.948   l-1.886,0.974l-0.979,1.144l-1.584-0.716l-0.82-1.097l-0.361-3.259l2.253-0.609L380.233,34.442z M362.286,50.211l2.361,1.328   l0.691-0.039l0.542,2.745l1.077-1.697l0.054-1.336l0.696-1.5l-1.719-1.376l2.108-2.514l2.514,2.719l0.315-1.198l-0.664-0.388   l-0.219-3.228l1.186,0.906l-0.033,0.828l2.258,1.166l0.174,0.819l-1.471,0.927l0.286,1.225l-1.473,2.971l-1.136,0.543l-0.765,2.869   l-0.318,2.153l-1.103,0.083l-1.175,0.837l0.375,1.793l-2.837,1.435l-0.67-1.374l-1.103-0.639l-0.798,0.292l0.663,1.958   l-0.811,0.955l-2.634,0.747l-1.733-0.09l-2.12,0.837l-0.545-1.847l1.344-1.137l0.736-3.189l-1.596,0.068l-1.427,0.861l-2.069-0.075   l0.785-1.261l-1.896-0.289l0.584-1.492l0.869,0.686l3.312,0.273l0.666-0.953l2.034,0.864l-1.347-2.3l0.042-0.986l2.125-0.053   l0.969-0.82l1.69,0.887l-1.299,1.672l0.463,1.038l1.639-1.492l1.864-0.284l-1.173-1.316l-0.498-1.587l-0.983-0.948L362.286,50.211z    M377.524,60.111l0.857,1.707l0.33,1.43l-2.861,4.979l-1.356,0.479l0.862,1.177l-2.317,2.266l-1.847-0.13l-0.857-1.764   l-2.867-1.578l0.183-0.749l-1.077-3.188l0.75-0.711l0.694-1.605l0.803-0.986l1.873-0.538l-0.918-0.85l1.817-0.955l1.828-0.43   l0.849-1.584l-1.376-1.88l2.259,0.048l1.583,1.175l-0.188,2.666L377.524,60.111z M410.833,45.694l-0.876-0.584l0.82-1.706   l0.806,0.92L410.833,45.694z M403.292,21.814l0.328,1.481l1.167-1.297l0.786,0.256l-0.152,1.934l1.577,0.431l0.567-1.089   l0.97-0.724l1.057,1.16l-0.72,1.661l-0.989,0.567l0.264,1.253l1.092,0.591l-0.869,1.209l2.562-0.753l0.228-1.5l1.639-1.305   l0.262,1.496l-1.003,2.023l-1.484,1.376l-1.818,0.641l-1.591-0.078l-1.026-0.475l-0.611,1.66l0.416,0.767l-1.969,0.905   l-1.112-0.592l-0.535-1.142l-1.411-0.85l1.626-1.416l-1.019-0.747l-2.082,1.75l-1.098-0.653l-0.28-1.49l0.914-0.566l-0.32-1.109   l2.142-0.051l0.858-1.628l2.291,0.633l-2.001-2.541L403.292,21.814z M390.16,28.589l1.281-0.365l-0.942,2.004l0.642,0.646   l-0.101,1.087l-0.888,0.125l-2.102-1.342l0.93-2.479L390.16,28.589z M482.999,64.805l1.34-0.056l1.613,0.872l0.825,2.053   l1.042-0.413l0.538,0.854l-1.733,1.648l-1.301,2.011l-2.428,0.883l0.44-4.977l-0.869-2.45L482.999,64.805z M487.561,64.771   l-0.637,1.769l-0.681-1.631L487.561,64.771z M264.15,168.861l-1.094,0.486l-1.059-1.195l0.549-0.584l-1.313-2.148l-1.119,2.709   l0.091,1.2l-1.097,0.036l-1.162,2.105l-1.396,0.389l-1.385-3.673l0.989-1.178l-0.406-1.733l0.827-1.249l0.994,0.209l0.692-1.611   l-0.075-1.698l1.358,0.003l2-2.315l-0.083,1.997l-1.678,2.558l-1.505,1.026l-0.403,0.781l0.715,2.791l0.468-0.051l-0.542-2.486   l1.881-1.467l2.156-2.771l-0.062-1.751l0.479-0.527l1.3,0.525l1.547-0.148l-0.089-1.069l-1.426-0.436l-1.442-2.166l0.6-1.425   l1.108-1.037l1.201,0.109l0.438,0.969l1.042,0.353l-0.825-2.15l0.764-0.152l2.745,1.683l0.955,1.325l0.436,3.142l0.652,2.027   l0.211,2.425l-1.322,2.578l0.158,1.694l-0.839,0.501l-1.043-0.509l-3.312,0.759l-0.771,1.332L264.15,168.861z M299.417,166.289   l-2.122-3.273l-4.803,0.948l-3.469,0.319l-3.539,1.966l-2.458,0.428l-5.811-0.3l-2.467,3.163l-2.753,1.158l0.342,1.708l-0.85-1.91   l-1.334-0.776l0.125-1.503l2.694-1.28l-1.111-0.844l0.077-1.499l0.659-1.461l1.235-0.53l1.867-1.678l1.734-0.072l0.959-1.486   l1.386-0.234l0.097,0.962l1.294,1.163l0.49,1.144l1.26-0.753l-1.613-0.638l-0.104-1.933l2.315-1.15l-0.188-0.955l2.655-3.15   l0.825-0.225l3.203,1.623l1.794,0.164l0.331-0.791l-1.986-0.094l-3.278-1.749l2.265-2.812l0.816-0.279l1.136,1.086l2.156,0.102   l-2.564-3.006l-3.176,1.369l-1.143,0.881l-0.081-2.828l1.453-0.303l-0.244-1.317l-1.011-0.495l0.875-1.883l0.683-0.503l1.56-2.283   l-0.982-0.965l1.453-0.675l0.994,0.097l2.327-1.65l2.183-0.3l-0.295-1.522l0.388-2.4l-1.587-0.906l-0.385-2.749l1.057-0.568   l0.708-1.247l-0.163-1.955l0.694-0.903l0.056-1.45l-0.618-1.072l2.7-1.541l1.422,1.73l-0.044,2l2.219,0.967l0.514,4.261l0.83,0.47   l-0.281-3.653l0.897,0.491l-0.241,1.048l0.712,0.822l1.103-1.135l2.268-0.758l-3.161-1.387l-0.931-1.694l-2.005-1.642l-0.309-1.783   l-0.714-1.322l1.473-0.565l1.115-0.898l0.856-0.034l3.199-1.299l0.535,2.205l0.992,2.814l1.57,1.124l-0.12,1.301l2.038,1.966   l3.433-0.191l1.132,1.531l-1.634,3.104l1.034,1.228l2.298-1.494l-0.386-0.878l-0.208-2.556l-1.283-2.094l-1.311-0.459l-2.803,0.544   l-0.767-0.839l-0.438-1.82l-1.679-1.32l0.351-2.745l-1.322-1.859l-0.416-2.269l0.631-2.094l1.209-1.863l0.228-2.394l1.186-0.47   l0.331-1.036l1.182-0.866l1.378-0.05l4.98-2.544l1.031,0.273l0.042,1.391l-0.633,1.311l0.478,0.603l-0.271,1.824l0.019,2.129   l1.42,0.572l-0.555,4.147l-0.494,0.9l0.023,1.656l0.866,0.925l-1.641,2.587l1.391-0.136l1.178-3.008l-0.056-1.522l-0.541-1.253   l0.853-2.918l3.403,1.094l-0.838-1.031l-1.784-0.523l-0.479-1.63l-0.93-0.94l0.259-1.928l0.675-0.766l-0.291-0.967l0.865-1.633   l0.338-1.909l0.937-0.352l0.201,1.952l1.348-7.492l1.176-0.411l1.138-1.831l1.268,1.604l1.044,2.134l-0.229,3.431l-0.486,2.963   l0.146,5.07l1.464,0.867l-0.305,2.439l-1.511,0.639l0.297,3.812l0.747,0.089l-0.156,1.47l-1.136,0.935l0.041,2.523l-1.619,1.467   l0.589,0.876l1.916-2.031l1.145,0.462l-0.25-1.947l0.851-2.138l0.431-3.641l0.075-2.7l2.146,0.59l0.351,1.167l0.997-0.13   l0.558,1.086l1.101-0.33l-1.559-1.297l-1.391-2.166l-1.038-0.366l-0.528-1.225l0.708-3.362l-0.923-2.753l0.825-0.056l1.566-1.367   l1.022-0.322l0.886-1.466l0.069-1.195l-0.836-0.972l0.212-0.766l1.195-1.035l0.433-1.008l1.323-0.684l0.709-1.286l0.896,0.641   l-1.326,1.267l-1.475,3.582l0.789,0.764l0.646,1.548l0.769,0.764l1.067-0.913l-0.976-1l1.001-1.197l-0.508-1.619l2.306-0.825   l0.678-0.758l-1.057-1.567l0.395-3.702l1.709-0.879l1.312,0.153l1.815,1.374l0.805,1.256l0.489,1.831l2.597,1.121l0.707,0.026   l2.025,1.914l1.345,2.441l1.562,0.526l1.444,0.992l0.768-0.569l-3.432-3.119l0.679-0.981l-0.205-0.894l-1.515-0.269l-0.664-0.692   l-0.8-2.392l0.792-0.914l-0.891-1.214l1.151-0.626l1.514-0.077l-0.878-1.662l-1.361,0.898l-1.183,0.154l-1.298-0.994l1.264-1.383   l-0.389-0.47l-1.449,1.147l-2.784-1.092l-2.303-0.455l-1.043-1.91l-2.332-0.72l-1.497-2.639l1.259-1.818l0.658,0.065l1.126-1.142   l0.453,0.938l1.019,0.512l-0.613-3.373l1.16-0.752l0.07,1.577l0.861,0.981l1.581,0.903l0.677,1.272l0.934,0.07l-0.156-2.489   l0.73-0.825l1.395-2.675l1.08,0.098l2.409,1.344l1.436-0.173l1.092,0.408l-0.253,1.523l0.355,2.697l-0.511,2.678l2.121-0.178   l-0.666-0.981l0.144-2.194l-0.264-3.005l1.688,0.07l2.878,1.014l3.151,0.244l1.721-0.264l0.897,0.325l-0.084,1.925l-1.792,3.062   l-3.447,1.847l-1.987,0.005l-2.548,2.504l0.506,0.766l1.36-1.887l1.648-0.4l5.536-3.014l1.438-2.182l0.589,1.438l0.523,2.38   l-0.536,0.94l1.341,0.991l0.669-0.911l1.201,3.19l1.32,0.354l0.82-1.125l1.829-0.828l0.328,0.631l1.373-0.881l0.572-1.75   l-0.513-0.465l-2.264,0.641l-2.926-1.291l-1.288-1.158l1.413-1.095l1.651-0.344l0.575-1.033l-2.031-1.42l-0.205-1.133l-1.25-0.629   l0.536-2.166l1.406-1.87l1.23-0.724l-0.394-2.029l1.624-3.216l2.521-3.253l0.176-1.496l0.749-0.991l1.538-0.979l1.234-0.394   l1.142,0.744l2.761,0.166l-0.474-1.241l-2.081-0.854l-0.791-0.861l0.746-1.075l0.413-1.597l0.106-2.923l0.959-1.518l2.441,0.031   l0.114,0.563l1.583,0.675l0.978,1.353l1.164-0.792l-0.253-0.935l-1.084-0.959l-1.5-1.997l-1.369-1.064l-2.346,0.004l-1.881-0.889   l0.089-1.83l-0.764-0.972l1.545-2.109l1.56,2.069l2.937,1.528l0.194-1.664l-1.462-2.058l1.434-0.499l0.028-0.751l-1.914-0.369   l-0.83-3.195l1.201-1.199l2.242-0.473l0.008,1.225l1.562,1.527l1.272-0.552l0.304-1.477l1.35,0.019l0.07,1.106l-1.043,2.138   l1.262,0.356l0.256-1.497l0.892-1.013l1.428,1.041l0.892,1.391l1.139,2.622l0.938-1.266l-0.208-2.203l0.2-1.245l-1.969-2.58   l0.622-0.719l1.516,0.402l0.266,0.559l1.896,1.281l-1.084,2.158l0.858,0.646l1.256-2.784l1.503-0.244l0.752,0.612l1.378-0.809   l0.716,0.166l-0.205,1.465l-0.753,2.146l0.138,1.63l-1.996,1.234l-0.163,1.32l0.842,0.248l-2.106,3.794l-0.695,0.898l-1.748,4.806   l-1.25,1.756l1.379,0.114l0.25,1.365l-0.72,0.55l-1.455-0.074l0.379,1.311l2.109-0.892l0.221,1.906l-0.599,1.033l1.4,0.271   l-0.173,1.158l-1.283-0.614l-0.601,2.021l0.303,2.53l0.913-1.152l0.697,0.205l0.185,1.565l-1.312,1.874l-1.814,1.814l-0.001,1.523   l0.951,1.116l-0.51,1.519l0.664,2.991l0.971-0.038l-0.247-2.408l0.362-1.411l1.656,1.719l-0.073,1.564l1.271,0.565l0.947-1.453   l0.034-4.017l0.949-1.509l0.301-2.525l1.061-1.348l0.157-1.986l-0.899,0.325l-1.458-0.895l0.458-1.675l1.464-1.864l0.766-3.297   l0.059-1.538l0.995-1.261l1.282-3.225l1.431-1.977l-0.354-0.913l0.312-1.652l-0.353-2.283l0.255-1.155l0.893-0.44l-0.152-1.655   l0.922-0.663l0.338-1.847l1.587-4.064l1.882-3.602l1.368-1.15l1.226,1.434l-0.238,0.81l0.595,1.793l-0.469,0.972l0.369,1.633   l1.109,1.004l-0.364,1.591l0.388,1.28l-1.959,2.764l-1.613,1.175l-0.6,1.802l2.776-1.736l1.88,0.641l0.27,3.591l0.397,1.144   l-0.612,1.567l0.291,1.409l0.656,0.199l-0.542,1.709l-0.02,1.348l0.999,2l0.793-2.791l1.218,0.686l0.604-2.832l2.167-1.128   l0.969,0.953l0.823-1.972l-2.068-2.28l-0.256-1.23l0.638-2.44l3.053,0.344l0.315-0.587l-2.936-1.231l-0.144-0.666l1.108-1.506   l-1.541-0.84l-0.12-2.178l2.388-0.334l-0.52-3.997l1.255-0.278l1.278,0.55l0.646-1.94l-1.066-0.869l-1.961-0.491l-2.326,0.431   l-1.797-1.103l0.019-2.669l0.775-0.106l1.988,1.215l0.184-0.584l-1.283-1.762l-1.183-0.466l0.784-1.7l1.685,0.586l2.239,0.176   l0.328,1.538l0.845,0.169l-0.168-2.035l-1.513-1.109l-0.521-2.136l1.5-2.288l2.045,0.244l-0.509,2.477l2.505,0.881l0.648-0.272   l2.337-3.215l1.063-0.006l0.736-0.864l0.989,0.256l0.722,1.626l-0.595,1.236l0.574,1.148l2.747-0.825l1.909,0.203l0.659,0.908   l0.081,2.661l-0.297,1.891l-1.016,2.784l-1.466,2.303l-5.466,0.725l0.2,1.328l1.555-0.261l2.224,0.297l0.885,0.746l-0.864,1.709   l-2.822,2.475l1.616,0.67l3.018-2.854l0.306-1.053l1.005-0.938l0.822,1.438l0.114,2.784l-0.408,1.703l-1.539,2.614l-2.266,2.686   l-0.385,1.69l2.231-0.513l0.939-1.24l2.27-0.044l0.316-1.19l1.571-0.6l0.578,1.609l0.997-0.938l1.215-0.347l-2.426-1.8l0.086-2.269   l0.34-0.606l-0.116-2.839l-0.361-1.339l0.295-0.918l-0.719-1.109l1.334-3.688l0.642-3.128l1.001-1.489l2.016-0.898l0.434,0.587   l1.467-0.481l0.981,0.898l1.735-0.344l1.194,2.361l1.806-0.122l-0.486,1.739l0.618,2.464l-0.858,1.708l1.053,0.523l0.376-1.409   l1.347-1.464l1.979-0.938l1.582-1.785l1.486,0.121l0.577,1.47l0.119,1.845l0.889,0.428l0.883-3.363l2.097-0.744l1.711,0.646   l1.67,1.695l1.736,0.908l-0.283,1.942L480,33.546l-1.922,0.67l0.188,0.847l1.35,1.025l0.766-1.344l2.284-1.875l3.702-0.42   l-0.054,1.356l3.053,1.242l0.266,1.754l0.849,0.183l1.003-1.32l1.007-0.691l2.558,2.205l0.68,1.271l0.583,2.673l-1.207,1.933   l-1.87,1.42l-0.613-0.035l-3.458,2.025l-0.153,1.771l-1.751,1.067l-0.016,1.67l0.902,0.908l-3.178,3.065l-0.402,0.989l-1.074,0.914   l-1.871,0.947l-4.575-0.222l-2.5,0.186l-1.966,0.467l-0.659-0.497l-1.834,0.535l-1.341-0.392l-1.451,0.75l-0.851-0.339   l-2.909-0.327l-1.033,0.63l-2.034,2.413l1.7,0.387l0.485-0.672l2.029-0.381l0.457,1.344l0.964-0.344l3.557,0.5l0.615-0.278   l0.858,1.203l1.638-0.042l0.503-0.602l2.562,0.237l0.647,0.361l2.619,0.025l0.214,1.192l-2,2.224l-1.467,2.586l1.337,0.553   l0.83-3.362l1.241-0.241l2.822,0.616l0.547,3.006l-0.247,2.631l-0.908,0.666l0.398,0.84l-0.418,2.377l0.922-0.477l0.417-1.834   l1.441-0.875l1.237-0.134l2.766-2.653l0.515,0.397l-0.245,1.628l1.628,1.027l-0.872-2.121l1.45-1.051l-1.304-1.639l0.129-0.749   l-1.035-1.036l-0.042-1.106l2.319-1.038l0.51,1.108l1.111,0.192l1.286,2.653l0.981,2.881l0.784-0.917l-0.948-1.086l-0.878-2.391   l1.128-0.856l0.631,0.413l1.619-0.402l2.041,1.33l1.09-1.261l2.006,2.403l0.181,1.151l1.395,1.055l-0.119,0.694l0.887,1.209   l0.846,3.498l-1.395,1.986l-2.126,0.205l-2.881,0.727l-2.266-1.816l-3.788-1.889l-1.575-0.522l-0.924,0.84l0.993,0.584l1.865,3.359   l0.219,1.332l-0.592,1.455l0.547,1.999l-0.957,2.815l-0.787,0.745l-1.76-0.423l-0.814,1.572l-0.892,0.635l-0.188,1.442   l-1.383,2.597l-2.905,0.514l-1.403,1.778l0.327,2.273l0.889,0.761l0.301,2.583l-0.409,0.792l0.456,2.432l-1.771,5.267l-4.084-1.991   l-1.263-1.398l-0.369-2.913l-0.641-2.431l4.116-9.784l0.851-4.26l-4.771-6.703l-1.319-2.438l-3.925-0.668l-9.34-1.906l-1.566-1.134   l-0.167-1.525l-3.443-1.112l-3.927-3.591l-0.609-1.844l-0.92-1.631l-2.211,1.261l-0.691,0.823l-0.839-0.331l-1.368,0.369   l-0.807,1.144l0.034,1.583l-1.511,0.586l-0.792,1.57l-1.226,1.053l0.667,0.78l-3.642,3.194l-1.122-0.972l-1.378,0.462l-1.045-1.125   l-1.973,1.214l-0.851-0.771l-3.147,1.991l-0.512,1.969l0.108,2.312l-1.852,2.378l0.044,1.038l-0.944,2.894l-1.153,1.142   l-0.647,0.011l-1.427,3.128l1.216,0.859l0.727,1.581l-0.219,1.845l-1.265,1.886l0.701,0.489l0.019,2.837l-0.255,2.413l1.081,0.999   l-0.864,4.073l0.428,1.541l-0.35,1.523l0.312,2.531l1.42,2.612l0.004,1.741l1.28,3.475l0.616,0.562l-0.614,1.58l0.074,1.056   l-0.717,3.716l-1.439,0.521l-1.083-0.626l-3.078,3.297l-0.814,2.228l-0.536,0.566l-0.188,2.231l0.437,3.707l0.564,1.728   l-0.555,1.05l-1.884,0.572l-0.64,0.876l0.215,2.254l-0.771-0.192l-1.979-3.234l-3.449-1.558l-5.562-0.65l-2.879-1.209l-0.246-1.739   l-1.322,0.731l-2.01-1.914l-1.994-0.081l-1.473,1.124l-0.222,3.526l-0.547,2.15l-3.862,1.359l-4.177,3.819l-2.586-2.503   l-4.215,0.793l-3.663-1.275l-1.353-0.681l-2.56,1.794l-1.426-5.153l-3.254-3.961l-0.564-1.712l-4.148-5.021l-2.857-3.03   l-2.58-3.025l-2.08-2.705l-6.116-0.828l-2.717,2.844l-1.306,2.056l-0.117,1.653l1.634,3.156l1.008,0.731l-0.386,3.17l-6.312-3.178   l-2.405,3.224l-8.312,1.741l3.525,4.07l1.361,1.278l1.27,5.825l-1.425,6.669l-2.143,3.852l-1.847,1.99l1.694,1.113l3.706,1.439   l-3.659,5.305l-0.797,1.65l-17.355-5.828l-6.303,1.148l-4.123-3.223L299.417,166.289z"/>
	<path fill="#03325B" stroke="#000000" stroke-width="0.5" stroke-miterlimit="10" d="M149.56,620.466l0.922,0.682l-0.208,2.793   l-0.838-0.339L149.56,620.466z M150.694,620.342l-1.631-1.122l0.72-2.069l0.02-1.648l0.954,0.527l0.765,1.748l0.18,1.365   L150.694,620.342z M73.483,591.823l-2.418-1.531l0.239-3l-0.263-0.965l1.307-1.285l0.431-1.148l-0.395-0.869l0.255-1.267   l2.358-3.774l1.347-1.125l0.848,0.17l2.896-1.377l0.289-1.815l1.244-1.898l3.869-1.052l2.791,0.728l1.113,0.708l2.696-1.462   l3.338-1.061l1.186-0.891l2.503-0.047l1.753,0.74l2.417-0.139l2.396,0.749l1.907-0.306l2.233,0.392l1.551-0.462l2.525,1.764   l2.556,2.495l0.742,1.584l0.108,2.679l1.525,2.514l1.096,0.213l2.044,2.119l-0.453,2.438l0.094,1.864l3.369,1.758l0.766,0.795   l-0.477,0.975l0.161,1.892l-0.582,1.205l1.74,0.472l0.342,2.087l1,4.074l1.012,0.988l-1.208,2.041l0.037,0.578l1.967-0.15   l0.764,1.788l1.72,2.142l2.902-0.092l-0.01-2.173l1.111-0.533l0.787,0.556l1.674,0.194l0.613-0.579l1.889,0.252l0.917-0.386   l-0.773-1.912l-0.867-0.922l-1.553-2.544l0.316-1.009l1.202-0.634l0.528-1.841l0.867,0.816l1.272-0.061l0.696-1.334l3.525-0.041   l1.011,0.32l0.749,1.854l-0.16,1.121l0.247,2.073l0.92,1.416l-1.147-0.034l-1.91-1.447l1.116,3.045l1.81,2.908l1.788-0.444   l0.126,0.997l0.889,0.523l-0.935,2.17l0.128,0.999l1.302,1.475l-0.1,1.333l-0.688,1.131l-1.086,0.754l-1.813-1.101l0.005,1.937   l-0.872,0.836l-0.62,2.886l0.117,1.311l-1.067-0.032l0.551,1.48l-1.245,1.636l-1.084-0.53l0.225,1.759l-1.908,1.478l-0.566-0.933   l1.188-0.667l-0.198-0.688l-3.107,2.406l-0.197,1.169l-1.406-0.391l-0.513,1.028l-0.925-0.609l-1.372,0.366l-0.634-0.756   l0.241-1.353l-1.02-1.4l-0.166-1.419l-0.965,0.511l-0.438-0.908l-1.23,0.134l0.141,1.184l1.131,1.694l-1.855,0.656l-0.634,1.597   l-1.515,0.723l-0.262,0.982l-2.018-0.191l-1.189,1.909l-1.249,0.992l-2.134-0.438l-0.672,0.858l0.819,0.744l2.021-0.51l1.408,1.164   l-2.468,1.274l-0.228,1.534l-0.886-0.774l-3.255-1.045l-0.212-2.838l-0.488-1.097l-2.117-1.387l-0.895-1.069l-0.863-2.95   l-1.372,0.27l-2.609-0.244l-0.332,0.872l-1.536,0.938l-0.06,0.52l1.67,1.297l-1.347,2.1l0.063,1.156l-1.107,0.514l-0.456-0.916   l-1.688-1.039l-0.953-2.202l-1.068-0.69l-1.6,0.822l-0.723,0.979l-1.858-1.238l-2.183-0.582l-0.328-0.831l-2.855-2.385l-1.878,0.22   l0.534,1.004l-1.685,0.124l-1.697-0.663l-0.986-1.3l-1.438-2.587l-0.152-1.035l-1.352-2.822l-1.476-1.414l-0.215-0.961l0.903-3.056   l-0.703-1.596l-0.495-3.208l-1.944-0.378l-0.342-2.202l-1.259-1.17l1.182-2.089l1.115-0.758l-0.855-1.95l-1.095-1.209l-0.396-1.812   l0.987-1.159l-1.01-1.072l-1.525-2.425l-1.161,1.013L73.483,591.823z"/>
	<polygon fill="#E12629" stroke="#000000" stroke-width="0.5" stroke-miterlimit="10" points="156.375,581.936 153.316,579.602    155.592,576.839 155.463,574.872 156.216,574.083 158.044,574.13 159.405,574.556 160.558,577.384 161.317,577.561    161.091,579.411 162.577,581.358 163.771,581.462 164.217,583.433 163.449,584.935 163.221,586.917 163.741,588.525    162.483,589.727 159.674,588.745 160.064,586.556 159.064,584.78 157.633,585.501 156.883,584.828  "/>
	<path fill="#A6C969" stroke="#000000" stroke-width="0.5" stroke-miterlimit="10" d="M224.172,188.772l0.875,1.314l-1.032,0.678   l-1.098-1.1l-0.175,2.384l-1.729,0.298l-0.276-1.119l-2.1,2.447l-0.754-1.242l1.076-3.472l-0.798-2.523l1.749-1.183l-1.284-0.709   l0.917-1.822l1.648-1.316l2.138,1.445l1.092-0.733l1.278-2.281l1.374-0.19l0.558,1.397l0.047,1.725l1.757-0.363l0.941,1.228   l-1.605,1.722l-1.089,1.756l-2.131-0.6L224.172,188.772z M215.327,188.237l1.188,0.244l1.297,1.208l-0.768,1.819l0.089,1.2   l-1.844,3.3l-0.91,0.484l-0.006-1.881l-1.358,1.013l-0.203-1.516l0.964-1.372l0.07-1.387l1.577,0.184l-0.256-1.722L215.327,188.237   z M212.772,198.033l-0.586,0.819l-1.24,0.041l0.384,1.356l-1.957,2.245l-1.423,0.589l-0.492,1.678l-1.131,0.192l0.952-2.258   l-0.334-1.383l0.936-0.977l0.277-2.33l0.8-0.452l0.453-2.7l1.077-1.947l0.678-0.556l-0.266-1.202l2.072,1.23l-0.953,0.612   l0.497,1.25l0.524,3.159L212.772,198.033z M229.872,179.57l2.303,2.13l-0.423,1.688l-0.806,0.364l-1.58-2.125l-1.129-0.703   l0.355-1.003L229.872,179.57z M243.439,171.036l-0.45,0.542l-2.55,0.18l-1.528-1.173l-1.233-1.866l1.013-1.058l4.274,0.619   l1.408,0.465l0.057,1.307L243.439,171.036z M257.833,136.797l0.375-2.561l1.22-0.672l0.451-0.812l1.817-1.155l1.315,1.31   l0.006,1.126l-0.837,0.888l-0.058,3.331l-0.303,1.119l-1.216,1.197l-1.359,2.175l-0.37,1.565l-1.182,1.979l-2.375,1.543   l-1.312,0.172l-0.357,2.794l-1.369,2.558l-1.261-1.352l0.413-1.014l-0.483-2.595l2.131-5.081l0.559-1.888l1.146-1.003l1.297-0.253   l1.113-1.159l-0.035-1.388L257.833,136.797z M241.131,161.626l-0.741,1.496l-1.684-0.328l-0.533,2.453l-0.526,0.83l-2.062,1.067   l-0.922-1.461l-0.2-1.275l-0.747-0.34l0.666-2.717l0.846-0.605l-0.88-1.068l0.181-1.158l1.011-0.27l0.583-1.067l1.105-0.065   l0.117-1.052l1.405-0.259l0.062,2.222l-0.336,1.06l0.884,0.464l0.592-1.279l2.753-0.999l0.077-1.339l-0.514-1.183l1.072-0.724   l2.519,0.441l-1.211-1.413l0.188-1.212l-0.917-1.322l0.247-2.419l1.119-1.487l1.481,0.222l-0.066,2.856l2.319,2.459l-0.075,1.678   l1.795,0.988l-0.339,2.111l-1.086,1.833l1.906,1.295l0.302,2.055l-0.786,1.216l-1.883,1.661l-1.987,0.979l-1.841,1.834   l-1.295-0.442l-1.851,0.126l-0.645-2.147l0.491-1.065l1.597-0.747l2.117-0.508l-0.294-0.615l1.221-2.067l0.122-1.209l-1.289-0.075   l-0.519,2.378l-1.256-0.209l-0.577,1.569l-2.081,0.292L241.131,161.626z M242.433,151.289l0.894-0.247l0.562,1.834l-0.65,0.788   l-1.297,0.131l-0.976-0.591l0.52-1.353L242.433,151.289z M267.086,190.75l1.244-0.967l0.948,0.856l-0.122,1.686l-2.249-0.752   L267.086,190.75z M260.472,187.075l-0.286,1.823l-1.456-0.758l0.789-0.961L260.472,187.075z M256.152,195.558l-1.19-1.248   l2.02-0.838l4.614,0.064l1.02,1.384l-1.175,0.747l-1.68-0.482l-1.098-1.146l-1.02,1.521L256.152,195.558z M250.864,196.891   l-1.859,0.06l-0.43-1.367l0.717-1.344l0.697-0.319L250.864,196.891z M247.733,196.771l0.397,0.69l1.92,0.281l0.257,1.008   l-1.34,0.925l-1.399-0.383l-2.172,0.355l-0.418-1.736l0.641-1.153L247.733,196.771z M242.194,185.273l-0.151,0.712l-1.294,0.678   l-0.149-1.513L242.194,185.273z M242.01,182.376l0.772-1.104l1.064-0.516l0.55,0.658l-0.679,2.228l-0.774,1.025l-1.312-0.443   L242.01,182.376z M237.327,177.604l-0.434-2.053l1.729-0.742l1.678-0.247l1.572,0.464l1.225-0.887h1.215l1.381-0.844l2.344,0.081   l-2.222,4.234l-0.913,0.275l-0.531,1.332l-2.995,3.156l-1.102,0.854l-0.694-0.942l-1.021,1.791l-1.458,0.445l-0.801,1.178   l-3.808,1.748l-1.342,0.039l0.301-1.292l-0.223-1.353l1.206-0.638l-0.247-0.673l0.657-1.408l-0.071-1.541l0.917-1.025l0.911,0.888   l1.566-0.447l-1.075-1.035l-0.519-1.972l1.669-0.659L237.327,177.604z M225.946,240.333l0.142,0.939l-0.966,0.545l-0.604-1.372   L225.946,240.333z M227.558,239.089l-1.806,0.203l0.07-1.076L227.558,239.089z M232.699,236.592l0.389-1.267l0.807-0.811   l0.28,2.166l-1.423,2.477l0.583,1.945l-0.223,2.075l-1.371-0.273l-0.344-1.98l-0.845-0.394l-1.45-1.611l0.626-0.541l0.119-1.756   l1.521,0.82l1.097,0.073L232.699,236.592z M239.907,232.849l-2.773,1.353l-1.393,0.936l-0.398-1.271l2.562-1.367L239.907,232.849z    M235.959,223.167l-0.336,1.975l-1.284,0.25l-0.977-0.362l0.552-1.169l1.396-1.144L235.959,223.167z M228.999,230.705l-1.813,1.172   l-0.026-0.994l0.908-0.573L228.999,230.705z M206.277,282.349l-0.406-1.514l-0.745-0.964l1.541-1.475l1.452,0.065l0.315,2.3   l-1.44,1.844L206.277,282.349z M206.705,267.273l-0.131-1.281l1.261-0.612l0.358,1.881L206.705,267.273z M202.991,264.966   l0.359-1.283l1.022,0.466l-0.308,1.703L202.991,264.966z M211.224,263.802l-1.051-0.484l0.47-1.523l0.847-0.167L211.224,263.802z    M211.17,274.217l-0.555-1.38l0.893-1.266l1.081,0.562l-0.077,1.519L211.17,274.217z M212.13,278.814l1.775,0.186l-3.443,2.528   l-0.869-0.674l0.628-1.287L212.13,278.814z M206.044,291.85l2.975-1.07l0.289,1.594l-3.272,1.675l-0.896,0.109l-1.935,1.712   l-1.268,1.497l-2.423,0.45l-0.9-0.471l0.673-1.126l0.824,0.053l0.021-1.519l0.919-1.338l1.937-1.681l1.144,0.178l0.501,0.808   L206.044,291.85z M206.422,285.672l-1.561-0.646l-0.306-1.384l1.358,0.044L206.422,285.672z M209.993,283.992l-1.746,0.853   l-0.161-1.489l1.792-1.011L209.993,283.992z M217.417,254.898l1.936,0.175l-0.062,0.63l-2.16,0.795l-1.891-0.416L217.417,254.898z    M218.355,251.9l1.633-0.161l0.786,0.77l-4.028,1.039l0.389-1.236L218.355,251.9z M196.994,291.8l1.018-1.205l0.72-1.7   l-0.273-0.944l1.932-0.63l0.097-0.681l1.455-2.019l-1.312-0.336l-0.396-1.021l1.727-0.397l0.637-1.18l0.848,1.828l-0.359,2.724   l0.742-0.136l0.355,1.544l-1.703,1.55l-2.453,1.788L196.994,291.8z M201.738,297.733l-1.222,1.731l-0.551-0.653L201.738,297.733z    M189.411,306.558l1.634,0.141l0.617,2.411l-2.289,3.128l-0.533,0.23l-1.103-1.264l-1.742-0.067l0.771-1.327l0.572-2.144   l0.889-0.959L189.411,306.558z M199.352,307.214l-1.233,2.094l-1.084-0.445l0.958-1.254L199.352,307.214z M200.752,303.286   l-0.526,0.732l-1.182-0.68l1.806-1.44L200.752,303.286z M194.591,317.94l-0.559,0.836l-1.055,3.269l-1.042-0.634l-0.173-0.891   l1.327-1.224l0.995-1.673L194.591,317.94z M191.764,330.755l-1.537-0.244l1.059-1.381L191.764,330.755z M190.368,337.317   l-0.464-0.003l-0.775,0.31l0.515-4.001l1.675-0.855l0.332,0.812l-0.733,2.406l1.111-0.44l1.319-2.194l-0.176-1.44l1.853-1.435   l1.281,1.022l0.719,1.756l-1.289,2.144l1.982-0.103l-0.645,1.283l-1.341,0.994l-2.245,0.544l-0.694-0.814L190.368,337.317z    M194.614,340.814l-1.031-1.023l-0.985,1.044l-0.721-0.736l-0.016-2.435l2.37,0.872l0.617,1.311L194.614,340.814z M261.545,158.614   l-2,2.315l-1.358-0.003l0.075,1.698l-0.692,1.611l-0.994-0.209l-0.827,1.249l0.406,1.733l-0.989,1.178l1.384,3.673l1.396-0.389   l1.162-2.106l1.097-0.036l-0.091-1.2l1.119-2.709l1.313,2.148l-0.549,0.584l1.059,1.195l1.094-0.486l-0.459,3.173l-1.122,1.192   l-0.072,1.812l-2.311,1.416l0.386-3.874l-0.462,0.158l-0.484,2.594l-1.702,0.225l0.348,0.95l-0.978,2.409l-0.83,0.175l-0.205,1.242   l-1.261-0.302l-0.953-0.896l-3.389-1.354l1.479-2.034l1.548-1.517l0.758-1.872l0.992-0.811l-0.453-0.918l-2.111,3.536l-3.371,3.514   l-1.212,2.624l-1.016,0.567l-2.119,0.223l-0.409-0.584l1.097-1.33l1.062-3.004l2.323-3.822l-0.792-1.065l0.697-1.392l-1.461-0.039   l0.445-2.036l4.057-1.684l1.021-1.91l-1.306-2.869l0.351-2.322l-0.306-2.996l1.785-0.561l0.009-2.83l0.764-0.17l-0.125-1.511   l0.38-1.147l1.348-1.119l1.17,0.459l1.143-0.797l0.963,0.234l0.394,2.624l0.624,0.489l-0.735,2.897l-0.164,2.183l1.808-0.182   L261.545,158.614z M272.339,172.405l-0.342-1.708l2.753-1.158l2.467-3.163l5.811,0.3l2.458-0.428l3.539-1.966l3.469-0.319   l4.803-0.948l2.123,3.273l0.138,6.292l1.828,9.816l-3.441,11.239l-4.516-2.943l-7.173-3.3l-1.539,3.425l-3.848,3.462l-3.628,3.644   l-2.431,13.094l-0.929,2.527l-1.416,3.003l-4.529,0.991l-1.057,4.258l4.961,8.031l1.548,2.655l0.206,7.564l-3.412,3.176   l-2.713,3.544l-0.729,1.93l-6.302,13.764l-3.084,3.562l-1.361,2.109l1.217,4.37l1.288,5.125l-8.341,6.541l-10.048,1.381   l1.367,8.489l0.321,2.712l0.957,4.286l-1.467,5.394l-0.536,8.634l0.499,10.066l-2.433,3.012l-0.928,6.342l-3.27-0.87l-2.01,0.892   l-1.037-0.337l-1.633,0.564l-1.957,0.075l-4.155,0.719l-1.994-0.511l-2.404,0.881l-2.166-0.097l-3.073-0.636l-1.359,0.305   l-0.625,1.761l-1.156,0.247l-0.552,1.734l-1.154,0.769l0.782,0.805l-0.842,1.239l-2.691-0.033l-0.117,1.676l-1.065-0.568   l-1.758,0.637l-1.383-2.43l-1.163,0.606l-2.328-0.65l-2.303,1.517l-1.784-0.866l-0.181-0.499l0.673-0.495l0.027-1.23l-0.642-1.258   l2.53-0.965l0.413-0.628l2.137-1.048l2.158-1.47l1.053-0.292l1.307-1.105l1.173-1.577l1.58-1.501l1.312-2.314l2.155-2.192   l-0.518-0.675l-2.149,2.584l-1.62,2.55l-5.039,4.369l-1.672-0.181l-1.312-0.862l0.384-0.942l1.078-0.656l0.408-1.439l-0.488-0.497   l-0.003-1.806l-1.203,0.08l-0.638-0.969l1.481-1.595l0.404-2.097l-1.683,1.913l-2.273,0.261l0.867,1.361l-1.462,2.511l-1.18,0.416   l-0.717-0.42l-0.021-1.205l0.643-0.914l-0.194-3.167l1.256-2.848l1.2-1.177l2.008-1.411l-0.458-1.022l-1.447,0.759l-1.144-0.003   l0.941-1.596l0.437-3.662l1.239-0.078l-0.026,1.728l1.065,1.02l2.16,2.902l1.021,0.992l1.8-0.714l-1.889-3.081l-0.684,0.552   l-1.979-1.463l-0.989-4.369l1.812-3.378l2.732-3.228l0.594-1.781l-0.229-1.019l0.57-1.337l0.264-2.227l0.989-1.626l2.928-2.087   l1.153,0.801l0.709,1.353l1.75,0.167l0.538,1.275l0.806,0.592l1.311-1.089l-2.219-1.831l-1.245,0.014l-1.761-1.736l1.083-1.189   l-0.067-1.857l-2.782-0.213l0.49-0.761l-3.05,0.413l-0.052-0.392l2.955-2.872l3.033-1.153l1.63-0.356l3.438-1.538l0.039-0.734   l1.416-1.067l1.091,0.375l3.884-0.83l0.599,1.56l-0.199,1.234l0.905,0.663l2.041-0.516l1.031,0.762l0.806-0.438l-1.756-1.111   l-1.371,0.606l-0.886-2.18l1.506-1.026l0.983-0.126l1.601,0.93l2.385-1.288l0.142-1.131l2.736-1.67l-0.208-1.225l-1.881,1.283   l-1.57,0.17l-1.196,1.365l-1.253,0.057l-3.706,1.808l-1.187-1.495l-1.824,1.291l-1.521,0.392l-1.292-0.634l-1.358,1.512l-1.637,1.2   l-2.358,1.102l-0.188-1.436l1.387-1.562l1.636-1.145l0.259-0.997l3.524-1.258l1.303,0.109l0.145-1.651l-1.056,0.017l-3.223,1.438   l-1.988,0.262l-2.595-1.331l0.083-1.439l1.536-0.803l1.356-1.247l-0.312-1.357l-1.016-1.06l0.146-2.094l-1.047,0.194l-0.386-1.775   l1.28-0.93l2.311,1.514l0.137,1.175l1.104,0.272l1.114-2.136l1.958-0.845l2.121,0.119l2.294,1.367l-0.142-0.938l-2.067-1.031   l-4.066-0.138l-0.916,0.616l-1.32-0.425l0.062-2.566l0.55-0.637l-1.795-1.624l1.103-0.93l0.686,0.408l2.056-0.136l2.994,0.628   l-0.603-1.009l-1.994-0.567l-1.894-0.231l-1.231-1.5l2.942-0.386l4.052,1.916l2.27-0.336l0.161-1.467l-1.601,0.897l-1.161,0.075   l-0.299-1.668l-1.271-2.096l0.084-0.683l3.771-0.547l2.262,0.839l3.395-0.189l-0.375-0.514l-2.989-0.004l-2.177-1.469l-0.153-1.514   l-0.875-0.427l-0.528-1.245l-1.844,0.271l0.188-1.442l-0.763-1.059l4.202,0.387l1.371-0.739l0.188-1.234l1.105-0.785l2.283-0.426   l-0.563,1.247l0.935,0.97l0.918-1.412l-0.913-1.886l0.384-1.737l1.159,0.465l0.512,2.08l1.729,1.021l1.004-3.065l1.491-1.146   l-1.023-0.701l0.092-1.652l0.539-1.012l-0.136-1.227l2.382-0.497l2.021,0.087l-0.624-1.522l1.521-0.551l1.509,0.391l2.17-1.447   l1.486,0.412l1.311-0.97l0.853,0.566l1.327-0.005l1.336,1.225l1.111-0.6l1.508,1.291l1.667,0.106l0.642,0.938l-0.62,1.916   l0.105,1.2l1.404,0.43l-0.35-1.764l0.584-2.572l-0.938-1.156l-1.595-0.606l1.272-1.108l-1.414-0.823l-2.136-0.134l-1.102,0.756   l-1.814-1.361l1.453-0.298l1.805-1.392l-0.061-1.28l-1.614,0.831l-2.411,0.447l-0.874,1.137l-1.724,0.045l-0.981,1.453   l-2.077,1.362l-0.308-3.078l-2.006,1.332l-5.194,1.012l2.994-3.737l2.506-2.417l0.099-2.439l2.788-0.209l2.902,0.301l-0.151-0.831   l-2.162-0.621l-1.083,0.514l-1.155-0.087l-0.889-1.197l2.069-2.225l2.775-2.494l2.203-0.93l0.736,0.283l1.183,1.361l0.122,1.173   l1.534,1.239l2.985,0.202l1.4,0.769l0.086,1.699l1.284,1.689l0.188,1.798l1.212-0.217l-0.374-1.292l-1.577-2.802l0.238-1.269   l0.812-1.509l1.732-1.792l-0.284-0.511l-2.596,2.754l-0.857-0.717l-1.614-0.444l-1.894,0.038l-1.338-1.091l0.624-2.15l0.944-0.778   l-0.342-0.795l-1.694,0.653l-0.642-0.284l1.208-2.622l0.459-1.592l0.855-1.009l2.836,1.906l0.137-1.003l-1.278-1.403l2.259-1.186   l1.452,0.266l1.887,1.447l0.253-0.904l-1.285-1.058l-1.669-0.411l-2.516-1.209l-2.266,1.025l-1.249,1.5l-1.158,2.094l-1.186,0.523   l-0.79,1.03l-1.928,1.208l-2.589,0.444l-1.312-0.864l2.503-1.381l-1.416-0.547l-0.231-1.091l1.858,0.031l1.545-0.797l0.292-1.269   l-3.081,0.519l-0.486-1.159l-0.802-0.334l0.977-2.212l1.444-1.942l1.712-0.961l1.05-0.202l1.482,0.695l2.589,0.143l2.511-1.927   l5.351-2.422l1.688,0.616l0.729,1.872l1.641-3.08l-0.637-2.689l-2.108-0.38l-1.142,0.508l-0.672-0.567l-1.854,0.045l-0.244-1.139   l-1.236,0.376l-2.247,1.342l0.881,1.109l-2.456-0.013l-0.622-2.039l1.109-2.122l0.949-0.675l0.168-1.211l1.113-0.526l0.645,0.987   l2.113-0.578l-0.169-2.322l1.663,0.828l0.396,3.487l1.418,0.003l0.906-0.941l0.753-1.615l-1.145-2.45l1.395,0.078l0.574-0.663   l-0.564-2.298l0.589-0.427l1.43,0.388l0.309,1.319l0.784,0.923l-1.461,1.081l2.274,1.07l-0.545,1.919l0.266,1.716l-0.434,1.912   l1.292,0.866l1.572,3.128l-0.548,2.653l1.319,0.469l1.006,1.275l2.369,1.238l0.444-0.972l-4.211-1.908l0.653-2.793l-0.015-1.31   l-1.751-1.202l1.396-0.769l1.222,2.597l1.987,2.574l0.18-1.455l-1.026-0.222l-1.396-2.349l-0.307-1.212l1.33-0.006l1.312,1.096   l0.941-1.006l-2.881-0.547l-0.027-2.541l-1.583-1.158l0.928-2.261l1.401-0.222l0.927-1.135l-0.57-1.719l-2.217,0.195l-0.93,0.739   l-1.343,0.031l-0.271-1.084l1.514-0.145l0.981-0.664l-2.114-1.469l-1.234-0.135l0.411-1.779l1.659,0.422l1.75-0.268l3.352,1.957   l1.409,2.003l-0.172,1.138l1.273,0.597l-1.331-4.42l-2.986-0.848l-2.728-1.189l-0.519-2.064l2.339-0.883l1.309-1.056l2.589-0.723   l0.506,0.778l1.086-0.916l1.584,0.991l1.457,0.447l-0.307,2.303l2.933-1.369l-0.089-0.859l4.582-1.271l0.781-1.217l1.298,0.947   l2.819,1.266l0.396-0.401l-3.229-1.308l-0.58-1.557l2.592-0.578l1.522,0.161l2.376,1.111l-2.378-2.448l-2.865,0.762l0.029-0.739   l1.013-1.08l0.475-1.824l-2.602,0.869l-2.046,2.525l-0.808,0.614l-2.755,0.789l-1.322-0.189l1.486-1.477l-0.694-0.839l-1.219-0.355   l-1.168,0.609l-1.025,1.675l-1.401,0.231l-2.108,0.775L272.339,172.405z"/>
	<path fill="#B7B2AE" stroke="#000000" stroke-width="0.5" stroke-miterlimit="10" d="M52.944,659.195l0.536,0.913l-0.221,1.058   l-2.357-1.183l-0.077-1.346L52.944,659.195z M109.574,652.086l2.398-1.729l-0.89,2.309l-1.7,1.191l-0.99-1.259L109.574,652.086z    M48.571,656.358l3.43-1.527l1.408-2.104l-0.175-2.063l1.008-1.222l-0.684-3.211l0.828-2.159L53.8,642.34l-0.021-1.209   l-1.219-0.714l-0.934,0.783l-0.6-1.525l0.355-1.491l0.72,0.169l2.42-0.622l0.607-0.759l-1.078-1.907l0.184-0.979l-1.431-0.394   l1.097-2.709l1.614-2.455l-0.983-0.376l-0.089-1.163l1.92-1.273l1.006-2.117l1.072-0.693l2.215-2.25l3.096-2.673l-0.327-1.762   l1.033-0.7l-0.422-0.979l-1.597-0.479l0.297-2.782l-0.299-0.943l0.347-2.255l1.784-3.759l-0.097-1.452l1.861-0.631l1.755-1.612   l-0.857-2.091l0.568-3.523l1.349,0.609l1.083-1.486l0.366-1.492l2.887-0.816l4.169,2.269l1.161-1.013l1.525,2.425l1.01,1.072   l-0.987,1.159l0.396,1.812l1.095,1.209l0.855,1.95l-1.116,0.758l-1.181,2.089l1.259,1.169l0.342,2.203l1.944,0.378l0.495,3.208   l0.703,1.596l-0.903,3.056l0.215,0.961l1.476,1.414l1.352,2.822l0.152,1.034l1.438,2.588l0.987,1.3l1.697,0.663l1.685-0.124   l-0.535-1.004l1.879-0.22l2.855,2.385l0.328,0.83l2.183,0.582l1.858,1.239l0.723-0.979l1.6-0.822l1.068,0.689l0.953,2.203   l1.688,1.039l0.456,0.916l1.107-0.514l-0.063-1.156l1.347-2.1l-1.67-1.297l0.06-0.52l1.536-0.938l0.332-0.872l2.609,0.244   l1.372-0.27l0.862,2.95l0.896,1.069l2.117,1.387l0.487,1.097l0.213,2.837l3.255,1.045l0.886,0.775l-0.439,0.581l-1.584,0.58   l-1.086,0.786l-0.431,1.681l-0.719,1.039l-0.952-0.072l-1.234,1.116l-3.854,2.42l-0.476,1.783l-1.756,1.138l-0.224,1.218   l-4.309,2.592l0.109,0.949l-0.553,1.305l0.315,0.672l-2.237,2.073l-0.628-0.298l-1.655,1.92l-0.876,1.754l-1.285-0.104   l-2.411,0.928l-2.316,2.004l-0.851,2.75l-1.4,0.67l-0.215-1.77l-1.51,2.364l-1.947-0.992l-0.509-1.134l-1.227-0.056l-0.505,2.743   l-0.619,0.509l-1.913-0.026l-1.362-0.488l-2.245,0.548l-0.732,0.734l-1.354-0.15l0.487,1.372L76.48,672.1l-1.948-0.066   l-1.708-0.653l-0.653,0.448l-1.35-1.073l-1.838-0.195l-0.783-0.823l-1.178-0.328l-1.474,0.144l-0.883,1.712l-0.876,0.793   l-1.072-0.033l0.166-1.668l-1.365-0.401l-0.057-1.315l-0.997-1.341l-1.581-0.134l-1.318-0.925l-0.038,1.622l-4.886-0.663   l-1.663-2.536l1.176-0.475l0.838-2.181l3.139-1.483l-1.758-1.389l-3.497-0.705l-3.516-1.555L48.571,656.358z"/>
	<path fill="#D1E7F6" stroke="#000000" stroke-width="0.5" stroke-miterlimit="10" d="M175.946,365.844l-1.889,0.937l0.345-1.617   l1.266-0.057L175.946,365.844z M172.369,357.22l1.173,1.67l1.437,0.34l1.027,1.299l-0.295,1.984l0.837,0.276l1.271-0.608   l1.667,1.176l-1.291,1.867l-1.691,0.262l-1.155-1.721l-1.247,0.502l-1.178-1.854l-0.06-1.021l-0.74-1.062l-1.302-0.628   l-0.003-1.101l0.973-1.418L172.369,357.22z M146.608,385.358l1,1.978l-2.4-1.062L146.608,385.358z M149.631,385.497l-1.993,0.293   l-0.424-0.854l1.22-1.08L149.631,385.497z M148.264,391.341l1.646-0.936l0.425,0.959L148.264,391.341z M174.338,397.856   l-2.069,0.933l-2.176,1.999l-0.778-0.251l1.239-2.463l1.241,0.104l1.742-0.831L174.338,397.856z M129.29,403.64l0.932,0.965   l-1.986,1.078l-1.371-0.332l0.839-2.027L129.29,403.64z M125.533,410.995l-2.727,0.85l-0.77-0.436l-3.65,0.736l-2.375,1.722   l-1.745-0.156l-1.884-0.562l-1.011-0.929l0.077-2.094l2.259-2.062l2.005-0.64l1.195,0.544l2.09-0.769l-0.793-0.886l-1.278-0.521   l1.335-0.917l8.29-1.35l-0.615,1.355l0.255,1.35l2.318-0.063l1.866,1.378l0.205,0.823l-1.767,1.51L125.533,410.995z    M122.599,396.366l0.917,2.516l-0.371,2.312l-1.224,0.509l-1.599-0.063l-4.178,0.855l-2.444-0.936l-0.584,0.645l-1.203,0.109   l-0.565-0.955l1.467-0.405l4.575-0.692l1.485-1.303l2.875-1.488L122.599,396.366z M117.405,407.396l-1.433-0.215l0.522-1.02   l1.166,0.122L117.405,407.396z M177.199,358.114l-0.5,1.902l-1.005-1.166l-0.089-0.998l-1.547,0.025l-0.416-1.525l1.425-0.629   l2.533,0.226L177.199,358.114z M167.13,342.839l-0.618-1.167l1.759-1.164L167.13,342.839z M165.084,346.874l0.314-2.166   l1.212-0.781l1.881-0.609l4.317-2.163l-1.395,2.381l-1.889,1.086l-1.65,1.795l-1.663,1.035L165.084,346.874z M167.816,346.756   l1.36-1.567l2.856-1.458l1.065-1.472l1.951,0.952l-1.594,0.678l-1.355,1.702l-1.111-0.23l-1.981,1.58L167.816,346.756z    M172.108,346.586l0.736-1.819l0.788-0.641l1.562-0.258l0.471,1.316l0.958,0.121l-1.173,1.864l-2.008,1.692l-1.763-1.604   L172.108,346.586z M178.036,359.985l-0.1-2.094l2.058,2.883l0.041,0.916l-0.828,0.906l-1.931-0.947L178.036,359.985z    M178.057,343.181l-1.113,1.477l-0.508-0.69L178.057,343.181z M184.283,334.806l1.022,0.824l-0.114,1.15l-1.608,0.847l-0.759,1.013   l-1.163,0.09l-0.561-0.662l1.221-2.68L184.283,334.806z M189.643,333.622l-0.515,4.001l-2.703,2.256l-0.505-1.314l2.093-3.438   L189.643,333.622z M194.508,341.416l0.182,0.499l1.784,0.866l2.303-1.517l2.328,0.65l1.163-0.606l1.383,2.43l1.758-0.637   l1.065,0.568l0.116-1.676l2.692,0.033l0.842-1.239l-0.783-0.805l1.155-0.769l0.552-1.734l1.156-0.247l0.625-1.761l1.359-0.305   l3.072,0.636l2.166,0.097l2.405-0.881l1.994,0.511l4.155-0.719l1.957-0.075l1.633-0.564l1.037,0.337l2.01-0.892l3.27,0.87   l-3.697,6.734l-2.214,4.328l-6.073,12.163l-1.036,3.033l4.969,3.397l4.064,1.28l0.6,0.744l1.265,12.794l-3.685,8.975l-5.346-1.705   l-3.767-0.867l-6.864-1.299l-5.97,1.847l-5.089,4.069l-4.25,7.5l-3.186,4.978l-0.65,2.069l-3.241,3.867l1.324,5.525l-2.755,5.802   L189.875,424l5.232,12.897l-3.129,4.728l1.313,7.436l-1.792,6.513l4.373,13.516l-0.995-0.003l-1.764,1.017l-1.612-1.759   l-1.587-0.636l-4.928-1.108l-1.038,1.64l-0.706-0.216l-0.355-1.444l-2.359,0.497l-0.753-0.927l-0.878-2.288l-1.359-2.062   l-1.259-0.696l-0.664-1.007l-1.905-0.896l-0.42-1.839l-1.455-2.095l-0.084-1.625l-0.831-0.694l-1.735-0.271l-2.523-1.492   l-1.688,0.146l-1.334,0.623l-1.192,1.594l-0.592-1.011l-1.363-0.533l-1.253,0.569l-5.876-1.691l-3.25-0.184l-1.317,1.525   l-1.115,2.973l-1.069,0.747l-0.526,1.291l0.64,2.669l1.199,3.655l-3.309,1.372l-0.47,2l-0.758,0.496l-1.328-0.914l-0.089,2.273   l-0.9,1.197l-1.889,0.236l-2.642,1.175l-2.483-1.839l-2.755-1.383l-5.768-2.456l-0.77-0.483l1.847-1.164l0.999-1.288l0.075-1.542   l1.553-4.614l-0.464-0.913l-1.467,0.005l-0.878-1.616l-2.048-2.908l-0.677,0.042l-1.222-2.448l1.533-1.361l1.576-0.128l0.453-0.631   l1.53,0.234l4.867-1.573l-0.861-0.773l0.288-2.527l-0.969-0.779l0.536-1.312l-0.845-1.037l-1.966,0.324l-0.894-0.544l-0.452-2.092   l1.039-1.887l-1.038-0.917l-0.293-2.978l-2.45,0.739l-0.251-1.009l0.827-0.455l-0.477-1.494l-2.425,0.814l-1.128-0.666   l-2.712,2.417l-3.583,0.551l-0.906-1.104l-3.228,1.926l-0.906-0.188l-0.85,0.707l-0.803-0.472l0.363-1.786l-1.119-1.173   l-0.333-1.702l2.614-1.011l2.021,0.888l1.354-0.414l1.839,0.714l0.984-0.256l-0.214-1.061l2.598-0.924l1.656,0.017l1.979-0.781   l0.732-1.297l-0.926-1.729l1.147-1.327l0.015-1.284l0.946-1.259l-0.646-0.769l-1.569-0.427l0.192-1.484l-1-1.236l1.406-0.157   l1.266,0.409l1.188-0.197l0.681,1.137l1.441-1.917l1.409,0.283l1.172,2.337l-0.605,1.7l0.791,1.795l0.784-0.878l1.361-0.326   l-1.819-3.208l1.366-1.06l1.003,0.205l2.491-1.194l-1.047-0.414l-1.372,0.092l-0.886,0.798l-1.502-0.652l-0.028-1.077l1.09-1.623   l2.301-0.702l0.858-0.876l1.911-0.044l1.755-2.122l1.646-0.923l0.978,0.041l1.646-1.006l0.709,2.621l1.399,2.492l-0.645,1.155   l0.982,0.72l-0.141,0.805l2.764,2.096l-0.917,3.318l-0.759,1.178l-2.025,1.23l0.976,0.405l2.229-1.592l1.997,0.203l2.328,1.76   l1.144-1.299l-2.334-0.786l-1.041-1.557l0.222-0.883l1.65-0.963l0.914-1.147l2.556-0.361l1.083,1.212l1.294-0.248l0.681-0.844   l1.197,1.188l1.28,0.244l0.947-0.652l3.566,0.746l2.943-0.769l-0.568-1.375l-1.453,0.15l-1.138-1.494l0.423-1.69l2.595-0.281   l-0.715-0.853l0.84-2.284l-1.958,1.131l-0.81,0.844l-2.219,0.468l1.055-2.878l0.911-0.58l1.911-0.32l0.318-0.857l2.139-2.205   l1.916,0.381l1.422-0.6l0.836,0.225l1.341-0.734l-0.133-1.652l1.656-0.416l0.939,0.355l1.315-1.184l1.28-0.637l-0.22-1.758   l-2.556-0.352l1.325-2.048l-0.583-0.611l0.735-2.501l-0.863,0.354l-0.528,1.119l0.227,0.971l-0.638,1.117l-2.33,0.666l-1.065,0.818   l-1.024,0.006L171.011,394l2.883-1.595l0.995-1.555l3.133-1.259l1.735-1.364l-2.271-0.502l-0.198-1.023l-1.744,0.128l-1.321,0.633   l-1.206,1.392l-1.135,0.422l-1.987,1.351l-2.041,2.392l-1.503,1.012l-3.545,1.721l2.624-0.302l3.288-2.517l0.176,0.579l1.519,0.791   l0.394,1.997l-1.45,0.914l0.193,1.102l-1.49,2.692l-3.095,1.396l-1.83,0.557l-1.759,0.923l-0.496,1.244l-1.033,1.045l-5.596,3.289   l-1.521-0.128l-2.434,2.589l-1.6,0.442l-2.489-0.643l-0.667-3.273l-0.866-0.844l-0.927-2.054l0.444-0.925l0.298-2.084l2.691-0.105   l1.739-1.64l-0.137-1.472l-2.094,0.289l-1.851,1.633l-2.141,0.622l-1.572-0.011l-0.327,1.347l-1.521,0.014l-0.305-1.741   l2.091-1.353l-2.199-1.8l1.055-1.236l1.041-0.35l0.478-1.683l1.711-0.952l0.814,1.187l1.475-0.44l-0.713-1.074l2.008-1.076   l0.2,1.16l2.133-1.623l3.305-1.431l-0.244-0.741l-1.449,0.711l-0.069-1.078l-2.042-0.701l0.13-2.065l1.212-1.685l-0.836-1.34   l1.164-1.109l1.447,1.438l1.107-1.113l-1.267-0.489l-0.209-0.922l2.181-2.101l-0.492-1.274l1.765-0.177l-0.116-1.367l1.083-0.564   l0.958-1.779l1.756-1.021l-0.039-2.228l1.408-0.168l2.255-1.115l-1.189-1.028l-1.33,0.278l-0.961-0.58l1.811-1.361l0.906,0.629   l0.464-1.479l1.17,0.606l1.072-1.621l0.975,1.043l0.725-2.653l1.749,0.672l2.14-1.55l-0.801-1.879l0.72-1.685l1.755,1.478   l0.538,2.08l2.18,3.103l-0.683,1.22l2.788-0.897l1.022,0.202l-0.661,3.416l1.572-0.787l-0.677-0.637l1.1-1.24l0.812,0.588   l1.539-0.686L180,366.14l-1.102-0.382l0.766-1.978l1.553-0.033l-0.316-1.967l1.126,0.17l3.114-1.223l-0.678-0.608l-1.689,1.108   l-1.633,0.242l-1.944-1.912l-0.767-1.293l-0.366-1.836l1.217-1.031l-0.67-0.508l2.367-1.302l0.59-1.249l1.088,0.641l0.614-1.196   l3.365-0.255l1.156-1.09l-2.156-0.621l-0.861,0.229l-0.947-1.553l0.719-1.643l4.457-2.188l0.914-0.83l1.398,0.295l1.068-1.331   l-2.438,0.223l-0.888,1.042l-4.534,2.475l-0.981,1.847l-1.861,1.209l-1.875,0.185l0.17,0.763l-1.591,1.94l-2.916,1.104   l-1.214-0.806l3.146-0.786l1.487-1.888l-3.483-0.344l0.844-2.236l-0.094-0.604l1.584-1.702l3.195-2.258l2.909-0.856l1.47,0.747   l-0.116-1.544l-2.617,0.338l1-1.297l1.53-0.56l1.15,1.136l3.643-3.611l0.464,0.003l1.494,0.347l0.016,2.435l0.721,0.736   l0.985-1.044l1.031,1.023L194.508,341.416z"/>
	<polygon fill="#A51516" stroke="#000000" stroke-width="0.5" stroke-miterlimit="10" points="124.76,465.234 125.53,465.719    131.297,468.175 134.052,469.558 136.536,471.396 139.177,470.222 141.066,469.984 141.966,468.788 142.055,466.514    143.383,467.428 144.141,466.933 144.611,464.933 147.92,463.561 146.721,459.905 146.082,457.236 146.608,455.945    147.677,455.198 148.792,452.227 150.11,450.7 153.36,450.884 159.236,452.575 160.489,452.006 161.852,452.539 162.444,453.55    163.636,451.956 164.971,451.333 166.658,451.188 169.182,452.68 170.917,452.95 171.749,453.646 171.833,455.271 173.288,457.364    173.708,459.203 175.613,460.099 176.277,461.104 177.536,461.802 178.896,463.862 179.774,466.15 180.527,467.077 182.886,466.58    183.243,468.023 183.949,468.239 184.986,466.6 189.915,467.708 191.502,468.344 193.114,470.103 194.878,469.086 195.874,469.089    196.866,472.151 194.26,490.833 193.17,498.261 196.325,502.272 197.808,503.501 199.614,505.986 203.022,505.69 210.01,515.854    209.196,520.57 208.246,523.403 206.344,526.006 205.746,530.039 204.178,530.648 200.327,530.477 195.675,531.917    195.083,532.413 197.602,538.302 197.661,540.134 199.097,545.811 201.802,550.202 201.927,552.241 203.499,554.592    204.108,556.42 204.099,561.521 202.747,564.167 201.571,565.506 201.696,567.545 202.621,571.78 201.628,576.283 200.442,579.058    199.161,580.186 197.846,582.592 195.208,584.42 193.824,586.224 192.658,586.038 190.905,586.422 189.282,585.683    186.847,587.053 186.842,587.811 185.699,588.667 184.838,584.867 185.302,584.349 184.638,583.139 185.049,581.547    185.633,581.106 185.347,578.514 184.493,578.508 184.324,576.702 181.38,575.104 179.158,572.227 179.719,571.134    179.675,569.564 180.178,568.131 178.253,566.749 177.185,564.981 176.189,564.602 175.875,563.236 174.127,558.841    173.079,558.354 171.805,556.892 171.027,556.592 171.197,553.742 169.79,551.755 168.705,553.436 168.266,555.964    167.666,555.849 164.866,557.229 164.458,557.928 162.111,557.666 160.264,556.731 158.782,556.93 159.377,559.72 161.722,560.116    163.652,561.651 163.633,562.516 164.356,564.048 162.657,565.581 160.233,565.523 159.221,564.766 156.786,565.198    154.038,564.811 152.111,565.383 150.821,564.923 151.413,562.35 150.131,562.651 148.417,561.367 146.856,561.001    146.089,554.981 144.733,553.259 144.121,550.935 143.474,549.733 141.774,549.383 140.358,549.514 141.263,551.039    138.022,553.194 138.002,555.288 138.321,557.997 137.622,558.073 134.783,556.599 133.417,555.31 133.18,553.806 130.124,554.094    128.808,553.195 128.667,551.644 129.25,550.729 128.033,549.703 127.447,547.396 126.702,546.655 127.106,544.369    126.224,542.783 124.481,542.28 122.955,540.448 121.606,539.936 117.761,537.483 117.163,535.827 115.42,535.548 112.663,534.214    111.045,532.837 110.802,531.354 108.622,529.499 107.061,529.273 105.396,527.859 104.196,525.688 102.814,526.466    100.415,524.58 99.163,521.979 98.583,519.555 99.082,517.83 100.883,516.428 101.782,515.28 102.572,515.331 103.569,513.979    101.547,512.067 101.542,509.389 104.417,509.367 105.571,508.258 104.885,506.589 104.436,504.411 102.964,503.661    101.113,504.747 97.322,502.864 97.124,500.648 96.417,498.606 96.964,494.892 95.533,493.742 93.549,493.052 88.024,493.956    88.17,492.392 86.188,487.544 86.369,485.93 85.947,483.901 86.342,481.755 86.033,480.522 85.333,480.258 85.264,478.914    86.544,477.989 87.106,476.641 89.349,476.236 90.163,477.634 91.959,477.033 90.891,475.169 92.669,474.381 94.586,472.422    96.68,472.336 97.444,473.281 100.144,473.153 103.833,467.917 105.602,466.092 107.183,465.406 109.78,464.808 111.42,464.935    115.075,464.653 118.799,464.63 120.944,464.876 121.538,465.983 123.791,465.814  "/>
	<path fill="#799550" stroke="#000000" stroke-width="0.5" stroke-miterlimit="10" d="M165.805,624.327l1.061,0.439l-0.834,2.521   l-1.021,0.528l-0.648-0.614l0.375-1.405l-0.422-0.95L165.805,624.327z M160.836,624.247l0.247-1.17l1.689,0.403l-1.104,1.597   L160.836,624.247z M156.896,606.047l-0.417,1.69l-0.983-0.523l0.442-1.453L156.896,606.047z M150.088,602.689l-0.92-1.416   l-0.247-2.073l0.16-1.121l-0.749-1.854l-1.011-0.319l-3.525,0.041l-0.696,1.334l-1.272,0.061l-0.867-0.816l-0.528,1.841   l-1.202,0.634l-0.316,1.009l1.553,2.544l0.867,0.922l0.773,1.912l-0.917,0.385l-1.889-0.252l-0.613,0.58l-1.674-0.194l-0.787-0.556   l-1.111,0.533l0.01,2.173l-2.902,0.091l-1.72-2.141l-0.764-1.788l-1.967,0.15l-0.037-0.578l1.208-2.041l-1.012-0.988l-1-4.075   l-0.342-2.086l-1.74-0.472l0.582-1.205l-0.161-1.892l0.477-0.975l-0.766-0.795l-3.369-1.758l-0.094-1.864l0.453-2.438l-2.045-2.119   l-1.095-0.213l-1.525-2.515l-0.108-2.678l-0.742-1.584l-2.556-2.495l-2.525-1.764l-1.551,0.462l-2.233-0.392l-1.907,0.306   l-2.396-0.749l-2.417,0.139l-1.753-0.741l-2.503,0.048l-1.186,0.891l-3.338,1.06l-2.696,1.462l-1.113-0.708l-2.791-0.727   l-3.869,1.052l2.52-3.511l0.875-3.241l1.717-2.288l0.935-6.281l1.194-4.478l-1.325-0.883l-0.703-1.126l-0.292-1.78l0.455-1.725   l-2.008-1.33l-2.531-0.322l4.418-3.736l1.628,0.725l1.056-1.341l-0.4-1.551l2.642-4.821l1.869-1.182l1.22,1.37l1.055-0.139   l1.396,0.514l2.503-3.663l1.973,0.337l0.313-1.211l1.273-1.834l-1.535-1.066l0.949-0.909l1.381-0.778l1.2,2.172l1.666,1.414   l1.561,0.225l2.181,1.856l0.243,1.483l1.617,1.376l2.758,1.334l1.742,0.277l0.6,1.656l3.845,2.453l1.349,0.512l1.526,1.832   l1.742,0.503l0.883,1.586l-0.405,2.286l0.746,0.742l0.586,2.306l1.217,1.025l-0.583,0.916l0.142,1.552l1.314,0.898l3.058-0.288   l0.236,1.503l1.366,1.289l2.839,1.475l0.699-0.076l-0.319-2.709l0.021-2.094l3.241-2.155l-0.905-1.524l1.416-0.131l1.7,0.35   l0.646,1.202l0.612,2.325l1.355,1.722l0.768,6.02l1.561,0.366l1.715,1.284l1.28-0.301l-0.592,2.573l1.291,0.459l1.926-0.572   l2.749,0.387l2.436-0.433l1.012,0.758l2.424,0.058l1.7-1.532l-0.723-1.533l0.019-0.864l-1.93-1.536l-2.346-0.396l-0.595-2.791   l1.482-0.198l1.847,0.934l2.347,0.264l0.408-0.699l2.8-1.381l0.601,0.115l0.438-2.528l1.084-1.682l1.408,1.987l-0.17,2.85   l0.778,0.301l1.272,1.461l1.048,0.487l1.749,4.396l0.314,1.366l0.995,0.38l1.068,1.767l1.926,1.384l-0.503,1.433l0.044,1.57   l-0.562,1.092l2.222,2.878l2.944,1.597l0.169,1.806l0.854,0.007l0.286,2.592l-0.584,0.439l-0.411,1.593l0.664,1.209l-0.465,0.519   l0.861,3.8l0.856,0.582l1.22,1.684l0.342,4.657l-1.235,0.044l-0.818,2.166l-1.858,0.247l-1.431,0.823l-0.792,1.824l1.619,6.316   l0.469,3.458l0.889,2.021l0.273,4.893l-1.078,1.534l-0.217,3.556l-0.386,1.041l0.303,1.261l-1.63,2.625l-0.688,2.816l0.116,0.814   l-1.411,2.233l-1.021,0.852l-3.354-0.018l0.135-3.005l0.278-1.931l-2.288-5.34l-1.278-0.7l-2.505,1.266l-1.161-1.955l-0.16-1.521   l-1.47,1.359l-2.181-0.959l-0.622-1.767l-1.019,0.713l-0.542,1.818l-0.795-0.984l-0.247-1.655l-1.604,1.612l-0.384-2.467   l-0.941-1.28l-0.845,0.033l0.345-2.634l1.188-1.28l-0.823-0.883l-1.861,0.764l-0.475-1.006l0.147-2.087l-0.356-0.717l0.234-1.823   l0.797-1.941l-0.02-1.755l-0.75-2.217l0.135-2.874l-0.702-2.818l-0.803-2.376l-0.043-1.858l1.581-3.831l1.28,0.4l0.88,1.774   l0.682-1.422l2.809,0.981l1.258-1.202l-0.52-1.608l0.228-1.981l0.77-1.502l-0.447-1.971l-1.194-0.104l-1.485-1.947l0.227-1.85   l-0.759-0.177l-1.153-2.828l-1.361-0.427l-1.827-0.047l-0.753,0.789l0.129,1.967l-2.276,2.764l3.06,2.334l0.509,2.892l-1.191,0.858   l-2.039,0.492l-0.878,2.749l0.592,0.881l-0.06,2.091l0.462,2.239l-0.148,0.884l1.997,1.598l0.319,4.354l-2.064,1.826l-1.791,0.708   l-1.105-0.45l0.758-4.714l-0.124-2.15l-1.602-2.298l-1.59-0.52l-0.334-1.163l-1.31,0.403l0.849,1.52l2.486,1.568l0.762,2.457   l-0.53,2.234L150.088,602.689z"/>
	<path fill="#F18F24" stroke="#000000" stroke-width="0.5" stroke-miterlimit="10" d="M113.061,418.619l0.902-0.392l0.395,1.205   l-1.395,0.311L113.061,418.619z M111.592,426.317l-1.642-2.465l-0.692-2.588l1.435,0.433l3.128-1.091l0.575,2.317l1.337,0.734   l0.572,2.027l-2.303,1.017L111.592,426.317z M116.338,415.75l1.947,0.506l0.823,1.464l0.005,0.866l-3.352,0.406l-1.32-0.447   l1.116-2.58L116.338,415.75z M104.006,411.761l2.339-0.129l0.383-0.42l1.4,2.034l-0.009,1.416l0.708,1.356l-0.862,1.438   l-1.664,0.627l-2.662-0.103l-0.739-1.678l-2.436-0.17l-0.667-1.045l0.068-1.361l2.324-1.435L104.006,411.761z M73.396,447.483   l-0.598-1.209l0.872-0.634l-0.491-0.805l1.019-1.041l1.164,0.522l1.323-0.017l1.985-0.539l0.253,1.992l-2.589,0.987l-1.708,0.189   L73.396,447.483z M72.199,446.981l0.249,0.705l-1.905,0.171l1.104-1.926L72.199,446.981z M68.467,444.014l-0.894-1.896l1.325-0.034   l0.352,0.769L68.467,444.014z M78.68,439.008l1.475,0.1l-0.773,1.535l-0.767-0.194l0.095,2.188l-1.525-1.181l-1.561-0.479   l0.306-1.891l1.018-0.438l0.781,1.014L78.68,439.008z M87.334,449.354l-1.461-0.062l-0.922-0.809l1.045-0.757l1.075,0.663   L87.334,449.354z M109.941,426.186l-1.758,0.231l-0.589-2.426l1.309-1.042l0.349,1.019l1.392,1.609L109.941,426.186z    M107.271,426.409l-1.663,0.44l-2.776-0.292l-0.558-1.979l2.147-0.692l0.587-0.933l1.666-0.545l0.885,2.943L107.271,426.409z    M64.893,454.276l-1.488,0.729l-0.701-1.277l1.643,0.023L64.893,454.276z M51.021,467.273l-4.004,0.74l-1.416-2.071l1.198-3.217   l1.695-0.084l1.879,0.882l2.16,0.142l-1.103,1.57l0.47,1.286L51.021,467.273z M43.722,463.686l1.005,0.241l-0.713,1.292   l-0.984-0.423L43.722,463.686z M62.616,445.75l1.414,2.03l-0.44,0.483l-1.922-2.026L62.616,445.75z M61.174,447.531l0.781,0.102   l0.803,1.05l-0.422,0.882l-1.163-0.851L61.174,447.531L61.174,447.531z M60.327,450.447l0.277,0.949l-2.66,0.842l-0.15-0.776   l1.359-0.866L60.327,450.447z M46.986,459.586l0.809,0.981l-1.747,0.34l-0.024-1.397L46.986,459.586z M50.464,459.609l0.647,0.355   l-0.876,1.857l-0.841-0.142L50.464,459.609z M55.152,464.352l-1.181,1.223l-0.853-2.612l0.433-0.903l-0.878-0.903l0.041-1.812   l1.241-1.558l1.947-0.409l1.142,0.245l0.478,2.678l1.621,0.922l-3.961,2.845L55.152,464.352z M58.15,455.336l-1.678,0.306   l0.055-1.125l1.656,0.191L58.15,455.336z M58.38,457.331l0.015-0.418l2.792,0.219l0.669-0.461l2.953,1.253l-1.364,1.187   l-2.442,0.24l-1.603-0.499L58.38,457.331z M99.446,427.03l0.74-0.289l0.604,1.301l-1.818,0.241L99.446,427.03z M99.842,428.474   l1.484,0.185l-0.281,1.686l-2.08,1.9l-2.197-0.761l0.501-2.327L99.842,428.474z M94.391,430.914l1.259-1.245l0.562,2.192   l1.095,1.024l-0.989,0.979l-1.116,0.391l-2.312,1.481l-0.99,0.188l-0.273-1.175l-2.347-1.022l0.236-0.899l1.284-0.767l0.166-1.774   l1.612-0.375L94.391,430.914z M63.325,445.109l2.083,0.933l-1.167,0.707L63.325,445.109z M120.73,414.272l1,1.235l-0.192,1.484   l1.569,0.427l0.646,0.77l-0.946,1.258l-0.015,1.283l-1.147,1.328l0.926,1.729l-0.732,1.297l-4.024,0.35l-0.922-0.316l-0.354-1.514   l-1.128-1.459l0.025-2.251l4.047-0.996l0.086-1.02l-0.794-1.984l-0.018-1.127L120.73,414.272z M108.896,433.045l0.85-0.707   l0.906,0.188l3.228-1.926l0.906,1.104l3.583-0.551l2.712-2.417l1.128,0.666l2.424-0.814l0.478,1.494l-0.827,0.455l0.251,1.009   l2.45-0.739l0.293,2.978l1.038,0.917l-1.039,1.887l0.452,2.092l0.894,0.544l1.966-0.324l0.845,1.037l-0.536,1.312l0.969,0.779   l-0.288,2.527l0.861,0.773l-4.867,1.573l-1.53-0.234l-0.453,0.631l-1.576,0.128l-1.533,1.361l1.222,2.448l0.677-0.042l2.047,2.908   l0.878,1.616l1.468-0.005l0.464,0.913l-1.553,4.614l-0.075,1.542l-0.999,1.288l-1.848,1.164l-0.969,0.579l-2.253,0.17l-0.594-1.106   l-2.146-0.247l-3.724,0.023l-3.655,0.28l-1.641-0.127l-2.597,0.6l-1.581,0.686l-1.77,1.825l-3.688,5.236l-2.7,0.128l-0.764-0.945   l-2.095,0.086l-1.917,1.959l-1.777,0.788l1.067,1.864l-1.797,0.602l-0.813-1.397l-2.242,0.404l-0.562,1.35l-1.279,0.925   l0.068,1.344l-0.818-0.562l-2.638-0.158l-2.56,0.316l-0.772,0.96l-2.043-0.379l-3.798,0.595l-0.505,0.506l-1.541,0.128l-0.85-0.522   l-1.604,0.488l-1.388,0.034l-0.9,0.994l-1.428-1.444l-0.122-1.509l-2.51,0.604l-2.737-2.495l-1.083,1.685l-2.456,0.6l-1.423-1.957   l-0.845-0.217l-2.92,1.178l-1.764-0.84l-3.896,0.515l-1.754-1.716l0.655-1.009l0.76-1.444l0.279-1.55l0.635-1.094L42.9,471.58   l-0.601-1.356l0.965-2.027l1.271-1.153l1.366,1.725l1.847-0.094l0.672,1.834l-0.151,0.904l0.982,1.63l0.556-0.364l-1.112-1.483   l0.625-2.146l3.37-1.285l1.318,0.869l0.653,1.512l-0.629,2.569l0.828,0.056l-0.02-1.555l1.041-0.055l0.459,1.178l1.619,1.972   l0.859-0.572l-2.834-3.934l-0.788-1.894l1.125-0.362l-0.094-1.087l-0.841-0.768l1.035-0.924l5.428-3.574l2.637-0.459l-0.004,0.946   l0.883,1.556l0.381,2.979l0.889,0.635l0.435,2.143l1.586,3.061l0.676,0.142l-1.327-3.433l-0.657-2.531l-0.548-0.575l-0.541-3.124   l-0.673-1.062l0.254-1.212l1.342-0.666l1.935,0.652l0.354-1.1l0.996-0.646l2.459-0.831l0.551,0.862l2.639,0.358l1.049,1.038   l-0.777,1.483l0.563,2.755l1.574,2.68l-0.038,4.594l0.828-2.06l0.011-2.573l2.181-0.136l0.863,0.989l1.435,0.274l0.667-1.209   l-0.35-0.656l-1.604,0.449l-1.811-0.568l-0.625-0.733l-1.6-0.291l-0.476-0.803l-0.516-2.354l0.584-0.527l-0.18-1.908l-1.412-1.773   l-1.346-0.194l0.112-0.963l-2.397,0.158l-5.069,1.751l-2.05-0.269l-1.496-1.638l-1.512,0.064l-0.48-0.625l3.211-0.037l0.122-0.383   l2.987-0.406l2.449,0.195l-0.742-2.145l-2.856,0.267l-2.361-0.194l-1.187-0.637l-0.494-1.967l1.884-1.398l1.021,0.567l4.182-0.614   l-0.075,1.466l0.741,0.25l0.759-1.875l3.181-0.878l2.149,2.238l1.192-0.741l0.852-1.084l2.661,0.197l0.767,2.399l0.967-1.155   l1.128,1.062l3.043,0.425l0.289,1.729l1.13,1.111l1.962,0.989l3.005-0.486l0.692-0.974l-3.09,0.533l-1.903-1.009l-0.913-1.356   l-0.308-1.521l1.866-0.437l0.555-0.98l2.272-0.669l0.551-0.592l4.693-1.55l1.705,0.12l1.077-0.529l0.938,0.248l1.798,1.669   l0.569-0.985l-2.956-1.957l-0.854-0.242l-8.401,2.78l-2.38,0.582l-0.641-1.179l0.026-1.81l0.82-0.461l3.262-0.831l1.84,0.161   l-0.114-0.742l-3.612,0.31l-5.552,1.381l-6.163,0.416l0.391-1.647l-0.449-1.011l1.154-1.742l1.19-0.506l1.852,0.678l0.753-0.648   l-0.989-0.92l-1.755,0.565l-1.194-0.126l-0.111-1.689l-0.633-0.133l-0.786-1.958l3.286-2.587l2.516-0.767l2.806-0.589l0.611,1.78   l1.684,0.945l0.595,0.964l-0.03,1.494l1.531,0.064l1.575-1.273l2.188-1.334l2.358,0.538l-1.871,1.599l0.903,0.249l2.017-1.325   l2.173-0.375l0.783-0.443l1.906,1.074l1.094,1.594l-0.769,1.497l0.896,3.389l0.667,0.909l1.886,1.199l1.104-0.167l0.308,0.888   l1.195,0.624l0.582,1.058l1.745,0.869l0.414,1.991l1.003-0.78l-0.616-1.977l-3.975-2.865l-0.348-0.73l-1.631-0.339l-1.141-0.99   l-0.722-3.092l0.302-1.188l-0.378-1.494l-1.795-1.483l-2.113-1.298l-1.334,0.38l0.006-1.704l0.75-0.788l1.295-0.253l0.158-1.903   l2.088-0.937l0.781,0.343l0.605,1.743l-0.275,1.688l1.145,1.177l1.422,0.826l1.592,1.7l-1.16,1.604l0.975,1.819l1.739,1.236   l0.822,1.178l1.205-0.503l0.646-1.011l-2.208-2.729l-0.244-1.063l2.011-0.062l3.339-0.433l-0.139-0.98l-1.333-0.024l-1.839,0.967   l-0.858-0.55l-2.22,0.336l-1.185-1.989L108.896,433.045z"/>
	<path fill="#F4C22C" stroke="#000000" stroke-width="0.5" stroke-miterlimit="10" d="M23.981,577.602l0.763,1.22l-1.283,0.697   l-0.541-1.271L23.981,577.602z M37.459,582.612l2.453,0.514l-0.906,2.881l-0.944-0.783l0.521-1.786L37.459,582.612z    M24.461,581.686l0.25-2l0.995-0.337l-0.896-1.127l0.841-0.616l0.558,1.404l1.775,2.17l0.73,3.581l-1.73-0.058l-0.775,0.861   l-0.837,2.827l0.4,0.916l-0.212,1.371l-1.005,0.94l-0.853-1.042l0.078-2.413l0.416-3.219l1.523-0.885l-1.098-0.753L24.461,581.686z    M29.389,579.914l-1.473-2.136l0.028-1.394l1.309-1.277l0.207-1.926l0.908,0.152l0.72,1.051l1.784,1.481l0.738,1.789l0.025,4.818   l-2.17,1.768l-1.354-0.381l-1.417-1.812l0.715-0.316L29.389,579.914z M32.525,570.409l-0.325,1.044l-1.595,0.828l-0.598-1.619   l0.826-2.832l1.433,0.683L32.525,570.409z M26.586,570.758l0.416,1.258l-0.612,0.539l-1.626,0.212l-0.572-1.514L26.586,570.758z    M23.524,570.336l0.666,0.391l-0.666,1.268l-0.738-0.559L23.524,570.336z M27.381,552.68l0.222,1.315l-1.2,0.102l0.217-1.95   L27.381,552.68z M45.774,565.862l1.037-0.292l0.953,0.908l-0.128,1.014l-0.819,1.181l-1.612,1.128l-0.544-3.209L45.774,565.862z    M38.258,573.251l-0.774,0.341l-1.409,2.642l-1.413,1.431l-0.563-0.219l-0.463-2.366L33,574.961l-2.36-2.439l1.076-0.566   l1.398,0.15l-0.163-1.07l0.466-1.214l2.104-0.434l3.308-0.232l0.023,2.184L38.258,573.251z M35.594,578.788l-0.271,1.734   l-0.972-0.786l0.047-1.048L35.594,578.788z M37.454,585.716l-0.428,1.166l-1.214-0.864l0.527-1.233L37.454,585.716z    M21.505,540.308l0.312,0.961l-0.642,1.374l-0.98-0.404l0.087-1.545L21.505,540.308z M25.071,557.58l0.901,0.945l0.896,3.232   l-0.994,0.97l-1.043-0.25l-0.806-1.275l-1.574-1.234l-0.327-1.435l0.069-2.231l1.227,1.037l0.452-0.766l-0.562-2.037l-0.33-4.069   l0.589-1.172l0.903,0.869l-0.535,0.966l1.074,0.729l0.145,1.149l1.582,3.022l-0.305,2.205L25.071,557.58z M26.128,564.021   l0.437,2.442l-1.417-1.605L26.128,564.021z M27.922,568.644l-0.749-2.979l0.416-0.166l1.021,2.194l0.606,0.33l-0.087,2.229   l-0.348,0.962l-1.067,0.75l-0.763-0.9l-0.524-1.666l0.246-1.419L27.922,568.644z M24.313,532.653l1.133,3.003l-0.557,0.12   l-1.781-1.525l-0.364-1.017l0.528-0.939L24.313,532.653z M26.506,542.283l1.881,0.766l1.438,1.768l0.636,1.388l-0.614,1.195   l-1.792-1.333l-2.208-0.828l-1.059-1.359l0.175-1.823L26.506,542.283z M26.682,546.411l2.706,1.833l0.313,3.509l-1.123,0.824   l-0.847-0.042l-0.733-2.426l-1.058-1.147l0.313-1.175l-1.288-0.964l0.429-1.108L26.682,546.411z M20.685,519.073l-0.038,1.078   l0.711,0.795l-0.406,1.691l-1.469-0.466l-0.37-1.653l0.298-1.256L20.685,519.073z M22.869,517.964l0.584,1.388l-1.45,0.67   l0.1-2.358L22.869,517.964z M26.13,523.298l1.319-0.584l0.312,1.458l-1.934,0.198L26.13,523.298z M26.756,525.664l0.42,1.837   l-0.009,3.003l-1.271-0.146l-0.151-4.471L26.756,525.664z M23.349,526.955l1.047,0.517l0.449,1.847l-1.267,0.062L23.349,526.955z    M29.192,543.401l-0.695-1.078l-1.22-0.162l-0.789-1.328l-2.013-1.68l-0.903-1.343l0.075-1.44l2.03-0.109l0.913,0.976l0.771,2.538   l0.608,0.225l1.391,1.896L29.192,543.401z M41.17,539.406l1.288,0.659l-0.602,3.833l-0.911,3.298l0.139,2.487l-1.159,0.091   l-1.545,1.758l-1.797-0.241l-0.67-0.547l-2.114-3.52l-1.06-1.402l1.328-0.25l1.94-0.896l0.865-1.644l2.025-0.603l1.581-2.754   L41.17,539.406z M30.052,517.32l-1.475,0.147l0.041-2.446l0.771,0.535L30.052,517.32z M26.599,514.5l0.652-1.295l0.997,0.353   l0.083,3.988l-0.344,0.937l-2.345,0.993l0.087-1.282l-1.869,1.231l0.006-3.897l1.7-2.122l1.228,0.144L26.599,514.5z    M27.805,493.769l0.079,0.827l-1.75,0.191l0.856-1.324L27.805,493.769z M28.005,489.259l0.52,1.827l-1.375-0.241l-0.225-0.844   L28.005,489.259z M28.308,505.501l1.186-0.312l-0.056,2.576l-1.624-0.001l-1.47-1.094l1.345-1.952L28.308,505.501z M32.41,499.673   l-0.091,1.07l-1.365-0.129l0.098-1.147L32.41,499.673z M33.981,497.427l-0.573,0.146l-1.797-0.965l0.952-0.656L33.981,497.427z    M39.496,476.155l-0.881,0.139l0.056-1.574l1.137,0.703L39.496,476.155z M33.407,474.811l2.094,0.397l-0.018,2.737l-1.317,1.404   l-0.875-1.47l0.695-0.789l-0.613-0.966l-0.855-0.099l-0.575-1.042l0.316-1.256L33.407,474.811z M36.221,481.979l1.357,0.574   l-0.125,1.408l-1.117-0.15l-3.541,0.995l-1.356,0.952l-1.853,0.417l-0.151-3.231l-1.729-1.125l2.042-1.578l1.259-0.619l1.161,1.003   L36.221,481.979z M28.542,486.634l-1.686-1.78l1.197-0.78l1.076,1.76L28.542,486.634z M71.041,586.327l-2.93,0.283l-4.067,2.044   l-1.157,0.872l-1.479,0.264l-1.292-0.481l-0.055-0.793l1.134-2.366l-0.225-0.624l0.386-2.306l-0.647-0.739l-2.168,0.438   l-0.686-0.614l-2.483,1.533l-0.47,0.747l-2.369,0.198l-1.502,1.855l-0.284,1.734l-1.064,0.45l-0.502,1.714l-1.017,1.873   l-0.006,1.393l-1.575-0.125l-1.389-0.768l-2.249,0.724l0.088-0.911l-1.631-0.817l-0.117-0.697l-1.355-0.425l-0.169-0.807   l-0.691-0.228l-0.112-1.667l2.159-1.439l1.751-1.744l3.738,1.396l0.666-0.487l1.03-2.056l-1.341,0.105l-0.399,1.275l-1.565,0.189   l-0.93-0.643l-0.431-1.307l-1.034-0.184l-0.968,1.033l-1.097-1.108l-0.522-1.578l-0.889-0.697l-1.231,0.269l-0.322-1.4l1.722-0.531   l0.288-1.628l0.754-1.08l1.51,0.022l1.674-1.042l1.735,0.173l0.486-1.503l-0.475-0.811l1.607-2.97l1.983-1.173l0.758,0.1   l1.392-0.812l-1.654-1.578l-0.837-2.448l1.122-1.205l1.394,0.134l0.683-1.747l0.672-0.016l0.492-2.003l1.898-0.453l0.672-1.014   l0.324-1.545l1.012,0.225l2.393-0.594l0.507-1.242l1.28-1.119l1.228,0.53l1.152,1.021l-1.803,3.623l0.057,1.082l-0.973,1.7   l-0.321,2.255l-0.858,2.447l0.636,0.056l1.402-3.078l0.136-1.905l1.097-2.109l-0.027-0.711l0.986-2.276l1.23-0.891l0.589-1.209   l1.306-0.753l0.874-1.028l1.178,0.416l2.462-0.527l1.486,1.068l0.601-0.686l-1.472-1.251l-2.426,0.086l0.841-1.374l2.325-2.587   l-0.315-0.213l-2.312,2.435l-1.055,1.775l-1.375,0.17l-1.908,0.728l-0.178,0.667l-2.05,0.95l-0.77-1.617l-2.404,0.152l-1.78,0.939   l-1.152-0.001l-0.413,0.856l-2.855,0.705l-0.731,1.008l-1.93,0.158l0.93,1.744l-1.284,0.719l0.056,2.319l-2.182,0.499l-1.688-1.164   l-0.397,1.881l-1.078,0.732l-0.472,2.32l-1.159-0.038l-0.31,1.285l0.333,1.584l-0.07,1.965l-0.384,1.406l-1.271,1.661l-2.17,0.489   l-0.373-1.484l-0.735,0.292l-0.17-2.253l0.618-2.486l0.815-1.391l-0.559-1.136l-0.936-0.439l-1.896,0.592l-0.837-0.481l0.897-1.878   l1.655-1.538l0.178-1.744l-1.105-1.09l-1.375,1.196l0.233,0.684l-1.337,2.279l-1.453,0.45l-0.751,2.184l-1.195-0.867l-0.416-1.255   l-0.024-2.637l-1.934,0.923l-0.829-0.806l0.559-0.938l-1.156-1.708l0.247-1.976l-0.572-2.828l1.75-0.988l1.583,0.833l0.375-1.225   l-0.866-1.251l-0.354-2.042l0.264-1.312l1.044-0.964l1.556,1.013l1.472,2.688l1.453,1.759l2.62-0.091l0.669-1.194l2.128,0.249   l0.045-4.021l0.694-2.666l0.866-4.961l-1.5-0.339l-0.582-1.376l-1.293,1.181l-1.332,0.069l0.303,2.849l-0.886,0.694l-1.025-0.293   l-0.857,0.987l-1.784,0.861l-0.487,0.894l-1.003,0.047l-1.034,0.889l-1.297-1.146l-0.552-2.694l-1.787-2.387l0.387-0.771   l2.224,1.986l0.387-0.772l-2.83-3.03l-1.209-3.167l-0.831-0.884l0.978-0.942l0.77,1.694l0.535-0.203l3.061,2.766l1.648,0.604   l0.152,1.647l2.367,3.231l0.42-0.271l-1.616-2.095l1.422-0.347l-1.545-2.432l-1.563-0.829l-0.655-0.89l0.934-1.396l1.783-0.962   l-0.3-1.113l0.445-0.793l2.487-0.312l0.847,1.065l0.628-0.565l-1.039-0.927l-3.442,0.548l-0.428,1.744l-0.635,0.589l-1.098-0.938   l-1.096-0.122l-1.026,0.885l-0.635-1.334l-0.9,0.293l-0.792-0.694l-0.453-2.635l0.212-1.607l-0.583-1.2l2.711,0.072L28,524.234   l-0.097-2.595l0.556-1.227L30,519.956l4.315,0.824l0.436,1.732l3.923,0.927l-0.129-1.304l0.973-0.738l0.996,0.157l1.941-1.53   l2.142,0.274l1.761-1.238l1.125,0.902l0.938-0.771l2.229,0.274l1.131,1.189l2.142-0.367l1.284,0.229l0.635,0.822l1.301,0.07   l1.488,1.562l2.086,0.271l1.706-0.474l0.914-0.942l1.062,0.751l1.293-3.903l1.488,1.288l1.736,0.467l1.747,0.02l0.476,1.38   l-0.106,1.253l2.933,1.508l0.355,3.312l1.219,2.203l2.244,1.78l-0.186-1.431l-1.309-0.396l-0.874-0.989l-0.874-3.538l0.342-0.55   l0.025-2.123l4.153-0.4l0.634-1.287l1.905,1.411l0.668-0.211l1.538,0.802l0.097-2.039l0.844-1.013l1.526-0.619l1.997,0.175   l0.547-1.036l-2.924-0.008l-1.628,0.428l-0.853-0.459l-0.104-2.868l-1.428-1.767l1.158-0.513l0.938-1.084l-0.017-0.945l1.194-1.771   l0.969-0.398l0.431-1.438l2.459-1.94l-0.566-0.278l-1.59,1.297l-1.358,0.527l-0.341,1.393l-1.558,0.798l-0.792,1.121l0.089,1.134   l-2.083,1.806l0.557,1.541l0.797,0.378l0.325,3.462l0.859,0.75l-1.619,1.056l-1.858-0.855l-1.308,0.053l-1.03,1.045l-4.833,1.124   l-0.603-2.362l-1.517-1.337l-2.548,0.041l-0.716-0.956l-2.315-0.572l0.023-1.602l2.211-1.643l-0.555-0.391l-2.473,1.905   l-0.816,2.187l0.142,2.721l-4.006,1l-1.651-1.393l-0.633,0.099l-1.383-1.685l-3.522,0.553l-1.681-1.297l-2.482,0.225l-2.661-0.666   l-0.91,0.195l-0.44,1.111l-1.847-0.798l-0.906,1.01l-2.055,0.888l-2.164,1.347l-1.469-1.556l0.196-1.269l-2.441,0.863l-0.413-1.126   l1.522-0.331l-1.619-1.469l-1.143,0.661l-1.949-1.695l0.625-1.087l1.161-0.025l2.486,1.383l0.423-0.9l-1.978-1.406l-2.814-0.001   l-0.56-1.883l-0.987-1.456l1.697,0.168l0.251-0.655l1.336,0.202l0.478-0.84l1.5,0.854l0.111-2.069l3.583,0.133l0.906-1.006   l-4.712,0.217l-0.546,1.203l-2.186,0.278l-1.098-4.128l-0.721-0.664l2.414-1.303l3.776,0.16l1.021-0.754l1.584,0.833l1.684-0.605   l0.202,0.862l1.084,0.302l-0.083-1.431l-1.155-0.467l-1.384,0.033l-2.616-1.052l-1.519-0.854l0.297-1.891l1.37,0.866l1.318,0.277   l1.163-0.715l-2.458-1.641l1.247-1.496l-0.781-0.876l-1.966,0.069l-1.186-0.634l-2.523,0.343l0.557-1.042l-0.691-1.106l0.198-2.508   l1.663-1.547l2.458,0.938l0.579-0.751l2.304,0.231l-0.091-0.773l-2.476,0.014l-1.271-0.328l1.358-1.244l1.112-0.059l2.328-0.822   l0.739-0.655L39,482.326l1.789-1.541l1.111-0.381l0.653,0.677l3.261,0.664l2.104,0.931l0.534,1.291l-0.891,1.041l2.647-0.067   l2.178-0.598l2.693,0.9l1.801,3.57l1.218-0.276l-1.06-2.259l2.979-0.528l1.834,0.541l0.858,1.053l2.208,0.916l1.203-0.152   l2.092-1.994l1.688-0.77l1.541,0.609l0.264-0.712l-3.024-0.82l-2.036,0.765l-0.622,1.756l-2.449-0.172L61.98,485.2l-2.261-0.294   l-2.338,0.513l-1.874-1.603l-2.029,0.008l-1.015-0.577l-2.551,0.293l-1.433-1.278l3.966,0.01l1.472,0.333l0.295-0.631l-1.939-0.562   l-0.869,0.281l-1.365-0.51l-2.05,0.237l-7.172-1.711l-1.542,0.858l-2.177-0.479l-1.101,0.772l-0.9-1.788l0.8-1.2l0.084-1.019   l2.658,0.27l1.425-0.604l0.561-3.048l-1.685-1.449l-0.448-0.895l-2.764-0.258l0.107-1.225l0.698-0.843l-0.711-2.373l2.569-0.371   l0.782,1.484l1.678,0.687l-0.528,2.206l1.547,1.644l1.531,2.114l0.233,1.869l-0.656,1.009l1.754,1.715l3.896-0.514l1.764,0.84   l2.92-1.179l0.845,0.218l1.423,1.957l2.456-0.601l1.083-1.685l2.737,2.496l2.51-0.605l0.122,1.509l1.428,1.444l0.9-0.994   l1.388-0.034l1.604-0.487l0.85,0.521l1.541-0.128l0.505-0.506l3.798-0.594l2.043,0.378l0.772-0.959l2.56-0.317l2.638,0.158   l0.818,0.562l0.7,0.265l0.309,1.232l-0.395,2.146l0.422,2.028l-0.181,1.613l1.981,4.849l-0.146,1.563l5.524-0.903l1.984,0.689   l1.431,1.15l-0.547,3.714l0.706,2.042l0.199,2.216l3.791,1.883l1.852-1.086l1.473,0.75l0.449,2.178l0.686,1.669l-1.153,1.109   l-2.875,0.022l0.005,2.678l2.021,1.912l-0.997,1.352l-0.791-0.051l-0.898,1.147l-1.802,1.401l-0.499,1.726l0.58,2.425l1.252,2.6   l2.4,1.886l-0.949,0.909l1.535,1.067l-1.273,1.834l-0.313,1.211l-1.973-0.337l-2.503,3.663l-1.396-0.515l-1.055,0.14l-1.22-1.37   l-1.869,1.181l-2.642,4.822l0.4,1.55l-1.056,1.341l-1.628-0.724l-4.418,3.736l2.531,0.321l2.008,1.33l-0.455,1.726l0.292,1.779   l0.703,1.126l1.325,0.884l-1.194,4.478l-0.935,6.281l-1.717,2.288l-0.875,3.241l-2.52,3.511l-1.244,1.897l-0.289,1.815   l-2.896,1.377l-0.849-0.17l-1.346,1.125l-2.358,3.775l-0.255,1.266l0.395,0.87l-0.431,1.147L71.041,586.327z M30.052,596.22   l-1.608,0.143l-1.872,0.56l-0.334-0.378l-1.207-1.555l0.13-1.775l1.133-0.666l1.026-2.597l1.588-0.591l0.862-0.802l0.319,1.981   l1.155-0.323l-1.214-1.761l1.288-2.203l0.949-0.451l1.043,0.4l-0.612,2.909l-0.555,0.545l0.062,2.374l-0.705,2.872l-1.208-0.076   L30.052,596.22z"/>
	<path fill="none" stroke="#000000" stroke-width="0.5" stroke-linecap="round" stroke-linejoin="round" d="M85.333,480.258   l-0.818-0.562l-2.638-0.158l-2.56,0.317l-0.772,0.959l-2.043-0.379l-3.798,0.595l-0.505,0.506l-1.541,0.128l-0.85-0.522   l-1.604,0.488l-1.388,0.034l-0.9,0.994l-1.428-1.444l-0.122-1.509l-2.51,0.604l-2.737-2.495l-1.083,1.685l-2.456,0.6l-1.423-1.957   l-0.845-0.217l-2.92,1.178l-1.764-0.84l-3.896,0.515l-1.754-1.715l0.655-1.01 M81.621,571.938l2.52-3.511l0.875-3.241l1.717-2.287   l0.935-6.281l1.194-4.479l-1.325-0.883l-0.703-1.126l-0.292-1.78l0.455-1.725l-2.008-1.33l-2.531-0.322l4.418-3.735l1.628,0.724   l1.056-1.341l-0.4-1.55l2.642-4.822l1.869-1.182l1.22,1.37l1.055-0.139l1.396,0.514l2.503-3.663l1.973,0.337l0.313-1.211   l1.273-1.834l-1.535-1.066l0.949-0.909 M185.699,588.667l-0.861-3.8l0.465-0.52l-0.664-1.209l0.41-1.592l0.584-0.439l-0.285-2.593   l-0.854-0.006l-0.169-1.806l-2.944-1.597l-2.222-2.878l0.562-1.093l-0.045-1.569l0.504-1.434l-1.926-1.383l-1.068-1.767   l-0.995-0.38l-0.314-1.366l-1.749-4.396l-1.048-0.487l-1.272-1.462l-0.778-0.3l0.17-2.85l-1.408-1.987l-1.084,1.682l-0.438,2.527   l-0.601-0.114l-2.8,1.381l-0.408,0.698l-2.347-0.263l-1.847-0.934l-1.482,0.197l0.595,2.791l2.346,0.396l1.93,1.536l-0.02,0.864   l0.724,1.532l-1.7,1.533l-2.424-0.058l-1.012-0.758l-2.436,0.433l-2.749-0.387l-1.926,0.571l-1.291-0.459l0.592-2.572l-1.281,0.301   l-1.714-1.284l-1.561-0.366l-0.768-6.02l-1.355-1.722l-0.612-2.325l-0.646-1.202l-1.7-0.351l-1.416,0.132l0.905,1.524l-3.241,2.155   l-0.021,2.094L138.32,558l-0.699,0.076l-2.839-1.475l-1.366-1.289l-0.236-1.503l-3.058,0.288l-1.314-0.898l-0.142-1.552   l0.583-0.916l-1.217-1.025l-0.586-2.306l-0.746-0.742l0.405-2.286l-0.883-1.586l-1.742-0.503l-1.526-1.832l-1.349-0.512   l-3.846-2.453l-0.599-1.656l-1.742-0.278l-2.758-1.334l-1.617-1.376l-0.244-1.482l-2.18-1.856l-1.561-0.225l-1.666-1.414   l-1.2-2.172l-1.381,0.778l-2.4-1.887l-1.252-2.6l-0.58-2.425l0.499-1.726l1.802-1.4l0.898-1.148l0.791,0.051l0.997-1.352   l-2.021-1.912l-0.005-2.678l2.875-0.022l1.153-1.108l-0.687-1.669l-0.448-2.179l-1.473-0.75l-1.852,1.086l-3.791-1.883   l-0.199-2.216l-0.706-2.042l0.547-3.714l-1.431-1.15l-1.984-0.689l-5.524,0.903l0.146-1.563l-1.981-4.849l0.181-1.613l-0.422-2.028   l0.395-2.146l-0.309-1.233l-0.7-0.264l-0.068-1.345l1.279-0.925l0.562-1.349l2.242-0.405l0.813,1.398l1.797-0.603l-1.067-1.864   l1.777-0.787l1.917-1.959l2.095-0.087l0.764,0.945l2.7-0.128l3.688-5.236l1.77-1.824l1.581-0.687l2.597-0.599l1.641,0.127   l3.655-0.281l3.724-0.022l2.146,0.246l0.594,1.106l2.253-0.169l0.969-0.58 M121.836,425.083l0.732-1.297l-0.926-1.729l1.147-1.327   l0.015-1.285l0.946-1.258l-0.646-0.769l-1.569-0.427l0.192-1.484l-1-1.236 M195.874,469.089l-0.995-0.003l-1.764,1.017   l-1.612-1.759l-1.587-0.636l-4.928-1.108l-1.038,1.64l-0.706-0.216l-0.355-1.444l-2.359,0.497l-0.753-0.927l-0.878-2.288   l-1.359-2.062l-1.259-0.696l-0.664-1.007l-1.905-0.896l-0.42-1.839l-1.455-2.095l-0.084-1.625l-0.831-0.694l-1.735-0.271   l-2.523-1.492l-1.688,0.146l-1.334,0.623l-1.192,1.594l-0.592-1.011l-1.363-0.533l-1.253,0.569l-5.876-1.691l-3.25-0.184   l-1.317,1.525l-1.115,2.973l-1.069,0.747l-0.526,1.291l0.64,2.669l1.199,3.655l-3.309,1.372l-0.47,2l-0.758,0.496l-1.328-0.914   l-0.089,2.273l-0.9,1.197l-1.889,0.236l-2.642,1.175l-2.483-1.839l-2.754-1.383l-5.769-2.456l-0.77-0.483l1.847-1.164l0.999-1.288   l0.075-1.542l1.553-4.614l-0.464-0.913l-1.467,0.005l-0.878-1.616l-2.048-2.908l-0.677,0.042l-1.222-2.448l1.533-1.361l1.577-0.128   l0.452-0.631l1.53,0.234l4.867-1.573l-0.861-0.773l0.288-2.527l-0.969-0.779l0.536-1.312l-0.844-1.037l-1.967,0.324l-0.894-0.544   l-0.452-2.092l1.039-1.887l-1.038-0.917l-0.293-2.978l-2.45,0.739l-0.251-1.009l0.827-0.455l-0.477-1.494l-2.425,0.814   l-1.128-0.666l-2.712,2.417l-3.583,0.551l-0.905-1.104l-3.229,1.926l-0.906-0.188l-0.85,0.707 M189.128,337.624l0.515-4.001    M190.368,337.317l-0.464-0.003 M194.614,340.814l-1.031-1.023l-0.985,1.044l-0.721-0.736l-0.016-2.435 M237.886,334.484   l-3.27-0.87l-2.01,0.892l-1.037-0.337l-1.633,0.564l-1.957,0.075l-4.155,0.719l-1.994-0.511l-2.405,0.881l-2.165-0.097   l-3.073-0.636l-1.359,0.305l-0.625,1.761l-1.156,0.247l-0.552,1.734l-1.155,0.769l0.783,0.805l-0.842,1.239l-2.692-0.033   l-0.116,1.676l-1.065-0.568l-1.758,0.637l-1.383-2.43l-1.163,0.606l-2.328-0.65l-2.303,1.517l-1.784-0.866l-0.182-0.499    M156.883,584.828l-0.508-2.893l-3.06-2.334l2.275-2.763l-0.129-1.967l0.753-0.789l1.828,0.047l1.361,0.426l1.153,2.828   l0.759,0.177l-0.228,1.851l1.486,1.947l1.194,0.104l0.446,1.97l-0.769,1.502l-0.228,1.982l0.52,1.608l-1.258,1.201l-2.81-0.98    M123.652,638.422l-0.886-0.775l-3.255-1.045l-0.213-2.837l-0.487-1.097l-2.117-1.387l-0.896-1.069l-0.862-2.95l-1.372,0.27   l-2.609-0.244l-0.332,0.872l-1.536,0.938l-0.06,0.52l1.67,1.297l-1.347,2.1l0.063,1.156l-1.107,0.514l-0.456-0.916l-1.688-1.039   l-0.953-2.202l-1.068-0.69l-1.6,0.822l-0.723,0.979l-1.858-1.239l-2.183-0.582l-0.328-0.83l-2.856-2.385l-1.878,0.22l0.535,1.004   l-1.685,0.124l-1.697-0.663l-0.987-1.3l-1.438-2.587l-0.152-1.035l-1.352-2.822l-1.476-1.414l-0.215-0.961l0.903-3.056   l-0.703-1.596l-0.495-3.208l-1.945-0.378l-0.341-2.203l-1.259-1.169l1.181-2.089l1.116-0.758l-0.855-1.95l-1.095-1.209   l-0.396-1.812l0.987-1.159l-1.01-1.072l-1.525-2.425l-1.161,1.013l-4.169-2.269 M71.041,586.327l1.307-1.285l0.431-1.147   l-0.395-0.87l0.255-1.267l2.358-3.774l1.346-1.125l0.849,0.17l2.896-1.377l0.289-1.815l1.244-1.898l3.869-1.052l2.791,0.728   l1.113,0.708l2.696-1.462l3.338-1.061l1.186-0.891l2.503-0.047l1.753,0.74l2.417-0.139l2.396,0.749l1.907-0.306l2.233,0.392   l1.551-0.462l2.525,1.764l2.556,2.495l0.742,1.584l0.108,2.679l1.525,2.514l1.095,0.213l2.045,2.119l-0.453,2.439l0.094,1.863   l3.369,1.758l0.766,0.795l-0.477,0.975l0.161,1.892l-0.582,1.205l1.74,0.473l0.342,2.086l1,4.074l1.012,0.988l-1.208,2.041   l0.037,0.578l1.967-0.15l0.764,1.788l1.72,2.142l2.902-0.091l-0.01-2.174l1.111-0.532l0.787,0.555l1.674,0.195l0.613-0.58   l1.889,0.252l0.917-0.386l-0.773-1.911l-0.867-0.923l-1.553-2.544l0.316-1.009l1.202-0.634l0.528-1.841l0.867,0.816l1.272-0.061   l0.696-1.334l3.525-0.041l1.011,0.32l0.749,1.854l-0.16,1.121l0.247,2.073l0.92,1.416 M264.15,168.861l-1.094,0.486l-1.059-1.195   l0.549-0.584l-1.313-2.148l-1.119,2.709l0.091,1.2l-1.097,0.036l-1.162,2.105l-1.396,0.389l-1.385-3.673l0.989-1.178l-0.406-1.733   l0.827-1.249l0.994,0.209l0.692-1.611l-0.075-1.698l1.358,0.003l2-2.315 M299.417,166.289l-2.122-3.273l-4.803,0.948l-3.469,0.319   l-3.539,1.966l-2.458,0.428l-5.811-0.3l-2.467,3.163l-2.753,1.158l0.342,1.708 M39.758,589.975l0.168,0.807l1.356,0.425   l0.117,0.697l1.631,0.817l-0.088,0.911l2.249-0.724l1.389,0.768l1.575,0.125l0.006-1.393l1.016-1.873l0.503-1.714l1.064-0.45   l0.284-1.734l1.502-1.855l2.369-0.198l0.47-0.747l2.483-1.533l0.686,0.614l2.168-0.438l0.647,0.739l-0.387,2.306l0.226,0.624   l-1.134,2.366l0.055,0.793l1.292,0.481l1.479-0.264l1.158-0.872l4.067-2.044l2.93-0.283l0.262,0.965l-0.238,3l2.418,1.531   l-2.888,0.816l-0.365,1.492l-1.083,1.486l-1.349-0.609l-0.568,3.523l0.857,2.091l-1.755,1.612l-1.862,0.631l0.098,1.452   l-1.784,3.759l-0.347,2.255l0.299,0.943l-0.297,2.783l1.597,0.478l0.422,0.979l-1.033,0.699l0.327,1.762l-3.096,2.673l-2.215,2.25   l-1.072,0.693l-1.006,2.117l-1.92,1.273l0.089,1.163l0.983,0.376l-1.614,2.455l-1.098,2.709l1.432,0.394l-0.184,0.979l1.078,1.908   l-0.607,0.76l-2.42,0.621l-0.72-0.169l-0.355,1.491l0.6,1.525l0.934-0.783l1.219,0.714l0.021,1.209l0.586,1.731l-0.827,2.158   l0.684,3.212l-1.008,1.222l0.175,2.063L52,654.831l-3.43,1.527 M26.236,596.544l0.334,0.378l1.872-0.56l1.608-0.143"/>
</g>
<g>
	
		<rect x="278.438" y="330.487" fill="#B7B2AE" stroke="#000000" stroke-width="0.5" stroke-miterlimit="10" width="23.039" height="23.042"/>
	<text transform="matrix(1 0 0 1 309.783 349.3838)" fill="#333333" font-family="Liberation Sans, Arial, Sans-serif" font-size="21">Agder</text>
	
		<rect x="278.438" y="358.008" fill="#A51516" stroke="#000000" stroke-width="0.5" stroke-miterlimit="10" width="23.039" height="23.04"/>
	<text transform="matrix(1 0 0 1 309.783 376.9033)" fill="#333333" font-family="Liberation Sans, Arial, Sans-serif" font-size="21">Innlandet</text>
	
		<rect x="278.438" y="387.063" fill="#F18F24" stroke="#000000" stroke-width="0.5" stroke-miterlimit="10" width="23.039" height="23.039"/>
	<text transform="matrix(1 0 0 1 309.783 404.4238)" fill="#333333" font-family="Liberation Sans, Arial, Sans-serif" font-size="21">Mre og Romsdal</text>
	
		<rect x="278.438" y="414.583" fill="#A6C969" stroke="#000000" stroke-width="0.5" stroke-miterlimit="10" width="23.039" height="23.04"/>
	<text transform="matrix(1 0 0 1 309.783 433.4785)" fill="#333333" font-family="Liberation Sans, Arial, Sans-serif" font-size="21">Nordland</text>
	
		<rect x="278.438" y="442.104" fill="#E12629" stroke="#000000" stroke-width="0.5" stroke-miterlimit="10" width="23.039" height="23.04"/>
	<text transform="matrix(1 0 0 1 309.783 461)" fill="#333333" font-family="Liberation Sans, Arial, Sans-serif" font-size="21">Oslo</text>
	
		<rect x="278.438" y="471.159" fill="#ECEAE5" stroke="#000000" stroke-width="0.5" stroke-miterlimit="10" width="23.039" height="23.041"/>
	<text transform="matrix(1 0 0 1 309.783 488.5195)" fill="#333333" font-family="Liberation Sans, Arial, Sans-serif" font-size="21">Rogaland</text>
	
		<rect x="278.438" y="498.68" fill="#03325B" stroke="#000000" stroke-width="0.5" stroke-miterlimit="10" width="23.039" height="23.04"/>
	<text transform="matrix(1 0 0 1 309.783 517.5752)" fill="#333333" font-family="Liberation Sans, Arial, Sans-serif" font-size="21">Vestfold og Telemark</text>
	
		<rect x="278.438" y="526.2" fill="#1385BB" stroke="#000000" stroke-width="0.5" stroke-miterlimit="10" width="23.039" height="23.04"/>
	<text transform="matrix(1 0 0 1 309.783 545.0957)" fill="#333333" font-family="Liberation Sans, Arial, Sans-serif" font-size="21">Troms og Finnmark</text>
	
		<rect x="278.438" y="553.719" fill="#D1E7F6" stroke="#000000" stroke-width="0.5" stroke-miterlimit="10" width="23.039" height="23.04"/>
	<text transform="matrix(1 0 0 1 309.783 572.6152)" fill="#333333" font-family="Liberation Sans, Arial, Sans-serif" font-size="21">Trndelag</text>
	
		<rect x="278.438" y="582.775" fill="#F4C22C" stroke="#000000" stroke-width="0.5" stroke-miterlimit="10" width="23.039" height="23.04"/>
	<text transform="matrix(1 0 0 1 309.783 600.1357)" fill="#333333" font-family="Liberation Sans, Arial, Sans-serif" font-size="21">Vestland</text>
	
		<rect x="278.438" y="610.295" fill="#799550" stroke="#000000" stroke-width="0.5" stroke-miterlimit="10" width="23.039" height="23.04"/>
	<text transform="matrix(1 0 0 1 309.783 629.1914)" fill="#333333" font-family="Liberation Sans, Arial, Sans-serif" font-size="21">Viken</text>
</g>
</svg>